<svg version="1.1" viewBox="0.0 0.0 411.750656167979 257.48556430446195" fill="none" stroke="none" stroke-linecap="square" stroke-miterlimit="10" xmlns:xlink="http://www.w3.org/1999/xlink" xmlns="http://www.w3.org/2000/svg"><clipPath id="p.0"><path d="m0 0l411.75067 0l0 257.48557l-411.75067 0l0 -257.48557z" clip-rule="nonzero"/></clipPath><g clip-path="url(#p.0)"><path fill="#000000" fill-opacity="0.0" d="m0 0l411.75067 0l0 257.48557l-411.75067 0z" fill-rule="evenodd"/><path fill="#efefef" d="m4.7979 68.11024l117.51181 0l0 181.22833l-117.51181 0z" fill-rule="evenodd"/><path stroke="#000000" stroke-width="1.0" stroke-linejoin="round" stroke-linecap="butt" d="m4.7979 68.11024l117.51181 0l0 181.22833l-117.51181 0z" fill-rule="evenodd"/><path fill="#000000" d="m22.361942 89.91023l0 -9.546875l3.28125 0q1.109375 0 1.703125 0.140625q0.8125 0.1875 1.390625 0.6875q0.765625 0.640625 1.140625 1.640625q0.375 0.984375 0.375 2.25q0 1.09375 -0.265625 1.9375q-0.25 0.828125 -0.65625 1.390625q-0.390625 0.546875 -0.859375 0.859375q-0.46875 0.3125 -1.140625 0.484375q-0.65625 0.15625 -1.53125 0.15625l-3.4375 0zm1.265625 -1.125l2.03125 0q0.9375 0 1.46875 -0.171875q0.546875 -0.1875 0.875 -0.5q0.4375 -0.453125 0.6875 -1.203125q0.25 -0.765625 0.25 -1.84375q0 -1.5 -0.5 -2.296875q-0.484375 -0.8125 -1.1875 -1.078125q-0.5 -0.203125 -1.625 -0.203125l-2.0 0l0 7.296875zm12.937653 -1.09375l1.203125 0.140625q-0.28125 1.0625 -1.0625 1.65625q-0.765625 0.578125 -1.96875 0.578125q-1.515625 0 -2.40625 -0.9375q-0.890625 -0.9375 -0.890625 -2.609375q0 -1.75 0.890625 -2.703125q0.90625 -0.96875 2.34375 -0.96875q1.390625 0 2.265625 0.9375q0.875 0.9375 0.875 2.65625q0 0.109375 0 0.3125l-5.15625 0q0.0625 1.140625 0.640625 1.75q0.578125 0.59375 1.4375 0.59375q0.65625 0 1.109375 -0.328125q0.453125 -0.34375 0.71875 -1.078125zm-3.84375 -1.90625l3.859375 0q-0.078125 -0.859375 -0.4375 -1.296875q-0.5625 -0.6875 -1.453125 -0.6875q-0.8125 0 -1.359375 0.546875q-0.546875 0.53125 -0.609375 1.4375zm8.443726 4.125l-2.625 -6.90625l1.234375 0l1.484375 4.140625q0.234375 0.65625 0.4375 1.390625q0.15625 -0.546875 0.4375 -1.3125l1.53125 -4.21875l1.21875 0l-2.625 6.90625l-1.09375 0zm4.7578125 -8.1875l0 -1.359375l1.171875 0l0 1.359375l-1.171875 0zm0 8.1875l0 -6.90625l1.171875 0l0 6.90625l-1.171875 0zm7.46109 -2.53125l1.15625 0.15625q-0.1875 1.1875 -0.96875 1.859375q-0.78125 0.671875 -1.921875 0.671875q-1.40625 0 -2.28125 -0.921875q-0.859375 -0.9375 -0.859375 -2.65625q0 -1.125 0.375 -1.96875q0.375 -0.84375 1.125 -1.25q0.765625 -0.421875 1.65625 -0.421875q1.125 0 1.84375 0.578125q0.71875 0.5625 0.921875 1.609375l-1.140625 0.171875q-0.171875 -0.703125 -0.59375 -1.046875q-0.40625 -0.359375 -0.984375 -0.359375q-0.890625 0 -1.453125 0.640625q-0.546875 0.640625 -0.546875 2.0q0 1.40625 0.53125 2.03125q0.546875 0.625 1.40625 0.625q0.6875 0 1.140625 -0.421875q0.46875 -0.421875 0.59375 -1.296875zm6.8828125 0.3125l1.203125 0.140625q-0.28125 1.0625 -1.0625 1.65625q-0.765625 0.578125 -1.96875 0.578125q-1.515625 0 -2.40625 -0.9375q-0.890625 -0.9375 -0.890625 -2.609375q0 -1.75 0.890625 -2.703125q0.90625 -0.96875 2.34375 -0.96875q1.390625 0 2.265625 0.9375q0.875 0.9375 0.875 2.65625q0 0.109375 0 0.3125l-5.15625 0q0.0625 1.140625 0.640625 1.75q0.578125 0.59375 1.4375 0.59375q0.65625 0 1.109375 -0.328125q0.453125 -0.34375 0.71875 -1.078125zm-3.84375 -1.90625l3.859375 0q-0.078125 -0.859375 -0.4375 -1.296875q-0.5625 -0.6875 -1.453125 -0.6875q-0.8125 0 -1.359375 0.546875q-0.546875 0.53125 -0.609375 1.4375zm12.474834 6.9375q-0.984375 -1.234375 -1.65625 -2.875q-0.65625 -1.640625 -0.65625 -3.390625q0 -1.546875 0.5 -2.96875q0.578125 -1.640625 1.8125 -3.28125l0.828125 0q-0.78125 1.359375 -1.03125 1.9375q-0.40625 0.890625 -0.625 1.875q-0.28125 1.21875 -0.28125 2.4375q0 3.140625 1.9375 6.265625l-0.828125 0zm2.3602448 -2.8125l0 -9.546875l6.90625 0l0 1.125l-5.640625 0l0 2.921875l5.28125 0l0 1.125l-5.28125 0l0 3.25l5.859375 0l0 1.125l-7.125 0zm13.202255 0l0 -0.875q-0.65625 1.03125 -1.9375 1.03125q-0.8125 0 -1.515625 -0.453125q-0.6875 -0.453125 -1.078125 -1.265625q-0.375 -0.828125 -0.375 -1.890625q0 -1.03125 0.34375 -1.875q0.34375 -0.84375 1.03125 -1.28125q0.703125 -0.453125 1.546875 -0.453125q0.625 0 1.109375 0.265625q0.5 0.25 0.796875 0.671875l0 -3.421875l1.171875 0l0 9.546875l-1.09375 0zm-3.703125 -3.453125q0 1.328125 0.5625 1.984375q0.5625 0.65625 1.328125 0.65625q0.765625 0 1.296875 -0.625q0.53125 -0.625 0.53125 -1.90625q0 -1.421875 -0.546875 -2.078125q-0.546875 -0.671875 -1.34375 -0.671875q-0.78125 0 -1.3125 0.640625q-0.515625 0.625 -0.515625 2.0zm6.4124756 4.03125l1.140625 0.15625q0.078125 0.53125 0.40625 0.78125q0.4375 0.3125 1.1875 0.3125q0.8125 0 1.25 -0.328125q0.453125 -0.3125 0.609375 -0.90625q0.09375 -0.359375 0.078125 -1.5q-0.765625 0.90625 -1.90625 0.90625q-1.4375 0 -2.21875 -1.03125q-0.78125 -1.03125 -0.78125 -2.46875q0 -0.984375 0.359375 -1.8125q0.359375 -0.84375 1.03125 -1.296875q0.6875 -0.453125 1.609375 -0.453125q1.21875 0 2.015625 0.984375l0 -0.828125l1.078125 0l0 5.96875q0 1.609375 -0.328125 2.28125q-0.328125 0.6875 -1.046875 1.078125q-0.703125 0.390625 -1.75 0.390625q-1.234375 0 -2.0 -0.5625q-0.75 -0.5625 -0.734375 -1.671875zm0.984375 -4.15625q0 1.359375 0.53125 1.984375q0.546875 0.625 1.359375 0.625q0.796875 0 1.34375 -0.625q0.546875 -0.625 0.546875 -1.953125q0 -1.265625 -0.5625 -1.90625q-0.5625 -0.640625 -1.359375 -0.640625q-0.765625 0 -1.3125 0.640625q-0.546875 0.625 -0.546875 1.875zm11.381226 1.359375l1.203125 0.140625q-0.28125 1.0625 -1.0625 1.65625q-0.765625 0.578125 -1.96875 0.578125q-1.515625 0 -2.40625 -0.9375q-0.890625 -0.9375 -0.890625 -2.609375q0 -1.75 0.890625 -2.703125q0.90625 -0.96875 2.34375 -0.96875q1.390625 0 2.265625 0.9375q0.875 0.9375 0.875 2.65625q0 0.109375 0 0.3125l-5.15625 0q0.0625 1.140625 0.640625 1.75q0.578125 0.59375 1.4375 0.59375q0.65625 0 1.109375 -0.328125q0.453125 -0.34375 0.71875 -1.078125zm-3.84375 -1.90625l3.859375 0q-0.078125 -0.859375 -0.4375 -1.296875q-0.5625 -0.6875 -1.453125 -0.6875q-0.8125 0 -1.359375 0.546875q-0.546875 0.53125 -0.609375 1.4375zm7.2874756 6.9375l-0.828125 0q1.9375 -3.125 1.9375 -6.265625q0 -1.21875 -0.28125 -2.421875q-0.21875 -0.984375 -0.609375 -1.875q-0.265625 -0.59375 -1.046875 -1.953125l0.828125 0q1.234375 1.640625 1.8125 3.28125q0.5 1.421875 0.5 2.96875q0 1.75 -0.671875 3.390625q-0.671875 1.640625 -1.640625 2.875z" fill-rule="nonzero"/><path fill="#cfe2f3" d="m10.467192 111.727036l106.173225 0l0 127.87401l-106.173225 0z" fill-rule="evenodd"/><path stroke="#000000" stroke-width="1.0" stroke-linejoin="round" stroke-linecap="butt" d="m10.467192 111.727036l106.173225 0l0 127.87401l-106.173225 0z" fill-rule="evenodd"/><path fill="#000000" d="m25.732817 128.29517l1.015625 0.25q-0.328125 1.25 -1.15625 1.90625q-0.8125 0.640625 -2.015625 0.640625q-1.234375 0 -2.0 -0.5q-0.765625 -0.5 -1.171875 -1.453125q-0.40625 -0.953125 -0.40625 -2.0468826q0 -1.1875 0.453125 -2.078125q0.453125 -0.890625 1.296875 -1.34375q0.84375 -0.46875 1.84375 -0.46875q1.15625 0 1.9375 0.59375q0.78125 0.578125 1.078125 1.640625l-0.984375 0.234375q-0.265625 -0.84375 -0.78125 -1.21875q-0.5 -0.375 -1.265625 -0.375q-0.875 0 -1.46875 0.421875q-0.59375 0.421875 -0.828125 1.140625q-0.234375 0.703125 -0.234375 1.453125q0 0.9687576 0.28125 1.7031326q0.28125 0.71875 0.875 1.078125q0.59375 0.359375 1.296875 0.359375q0.84375 0 1.4375 -0.484375q0.59375 -0.5 0.796875 -1.453125zm5.7581024 2.671875l0 -0.8125q-0.65625 0.9375 -1.75 0.9375q-0.5 0 -0.921875 -0.1875q-0.421875 -0.1875 -0.625 -0.46875q-0.203125 -0.28125 -0.296875 -0.703125q-0.046875 -0.265625 -0.046875 -0.875l0 -3.4218826l0.9375 0l0 3.0625076q0 0.734375 0.046875 1.0q0.09375 0.359375 0.375 0.578125q0.296875 0.203125 0.703125 0.203125q0.421875 0 0.796875 -0.203125q0.375 -0.21875 0.515625 -0.59375q0.15625 -0.375 0.15625 -1.078125l0 -2.9687576l0.9374981 0l0 5.5312576l-0.8281231 0zm1.9264965 -1.65625l0.921875 -0.140625q0.078125 0.5625 0.4375 0.859375q0.359375 0.296875 1.0 0.296875q0.640625 0 0.953125 -0.265625q0.3125 -0.265625 0.3125 -0.625q0 -0.3125 -0.28125 -0.5q-0.1875 -0.125 -0.953125 -0.3125q-1.03125 -0.265625 -1.4375 -0.453125q-0.390625 -0.18750763 -0.59375 -0.5156326q-0.203125 -0.34375 -0.203125 -0.75q0 -0.359375 0.171875 -0.671875q0.171875 -0.328125 0.453125 -0.53125q0.21875 -0.15625 0.59375 -0.265625q0.390625 -0.125 0.8125 -0.125q0.65625 0 1.140625 0.1875q0.5 0.1875 0.734375 0.515625q0.234375 0.3125 0.3125 0.859375l-0.90625 0.125q-0.0625 -0.4375 -0.375 -0.671875q-0.296875 -0.234375 -0.828125 -0.234375q-0.65625 0 -0.9375 0.21875q-0.265625 0.203125 -0.265625 0.484375q0 0.1875 0.109375 0.328125q0.125 0.15625 0.359375 0.25q0.140625 0.0625 0.828125 0.25q1.0 0.265625 1.390625 0.43750763q0.390625 0.15625 0.609375 0.484375q0.234375 0.3125 0.234375 0.796875q0 0.46875 -0.28125 0.890625q-0.265625 0.40625 -0.78125 0.640625q-0.515625 0.21875 -1.171875 0.21875q-1.078125 0 -1.640625 -0.4375q-0.5625 -0.453125 -0.71875 -1.34375zm7.75 0.8125l0.125 0.828125q-0.390625 0.09375 -0.703125 0.09375q-0.5 0 -0.78125 -0.15625q-0.28125 -0.171875 -0.40625 -0.4375q-0.109375 -0.265625 -0.109375 -1.109375l0 -3.1718826l-0.6875 0l0 -0.734375l0.6875 0l0 -1.359375l0.9375 -0.5625l0 1.921875l0.9375 0l0 0.734375l-0.9375 0l0 3.2343826q0 0.390625 0.046875 0.515625q0.046875 0.109375 0.15625 0.1875q0.109375 0.0625 0.328125 0.0625q0.15625 0 0.40625 -0.046875zm0.5700226 -1.921875q0 -1.5312576 0.84375 -2.2656326q0.71875 -0.625 1.734375 -0.625q1.140625 0 1.859375 0.75q0.734375 0.75 0.734375 2.0625076q0 1.0625 -0.328125 1.6875q-0.3125 0.609375 -0.921875 0.953125q-0.609375 0.328125 -1.34375 0.328125q-1.15625 0 -1.875 -0.734375q-0.703125 -0.75 -0.703125 -2.15625zm0.953125 0q0 1.0625 0.46875 1.59375q0.46875 0.53125 1.15625 0.53125q0.703125 0 1.15625 -0.53125q0.46875 -0.53125 0.46875 -1.625q0 -1.0156326 -0.46875 -1.5468826q-0.453125 -0.53125 -1.15625 -0.53125q-0.6875 0 -1.15625 0.53125q-0.46875 0.515625 -0.46875 1.5781326zm5.3171234 2.765625l0 -5.5312576l0.84375 0l0 0.78125q0.25 -0.40625 0.6875 -0.65625q0.4375 -0.25 0.984375 -0.25q0.609375 0 1.0 0.265625q0.390625 0.25 0.5625 0.703125q0.65625 -0.96875 1.703125 -0.96875q0.828125 0 1.265625 0.46875q0.4375 0.453125 0.4375 1.390625l0 3.7968826l-0.921875 0l0 -3.4843826q0 -0.5625 -0.09375 -0.796875q-0.09375 -0.25 -0.34375 -0.40625q-0.234375 -0.15625 -0.546875 -0.15625q-0.59375 0 -0.984375 0.390625q-0.375 0.390625 -0.375 1.25l0 3.2031326l-0.9375 0l0 -3.5937576q0 -0.625 -0.234375 -0.9375q-0.21875 -0.3125 -0.75 -0.3125q-0.390625 0 -0.734375 0.21875q-0.328125 0.203125 -0.484375 0.609375q-0.140625 0.390625 -0.140625 1.1562576l0 2.859375l-0.9375 0zm12.6579895 -1.78125l0.96875 0.125q-0.234375 0.84375 -0.859375 1.3125q-0.609375 0.46875 -1.578125 0.46875q-1.203125 0 -1.921875 -0.75q-0.703125 -0.75 -0.703125 -2.09375q0 -1.3906326 0.71875 -2.1562576q0.71875 -0.78125 1.859375 -0.78125q1.109375 0 1.8125 0.765625q0.703125 0.75 0.703125 2.1250076q0 0.078125 0 0.234375l-4.125 0q0.046875 0.921875 0.515625 1.40625q0.46875 0.484375 1.15625 0.484375q0.515625 0 0.875 -0.265625q0.359375 -0.28125 0.578125 -0.875zm-3.078125 -1.5156326l3.09375 0q-0.0625 -0.6875 -0.359375 -1.046875q-0.453125 -0.53125 -1.15625 -0.53125q-0.640625 0 -1.09375 0.4375q-0.4375 0.421875 -0.484375 1.140625zm5.2077484 3.2968826l0 -5.5312576l0.84375 0l0 0.84375q0.328125 -0.59375 0.5937538 -0.78125q0.28125 -0.1875 0.609375 -0.1875q0.46875 0 0.953125 0.3125l-0.3125 0.859375q-0.34375 -0.203125 -0.6875 -0.203125q-0.3125 0 -0.5625 0.1875q-0.23437881 0.1875 -0.3437538 0.515625q-0.15625 0.5 -0.15625 1.0937576l0 2.890625l-0.9375 0z" fill-rule="nonzero"/><path fill="#000000" d="m19.451567 143.96703l2.921875 -7.625l1.09375 0l3.125 7.625l-1.15625 0l-0.890625 -2.3125l-3.1875 0l-0.828125 2.3125l-1.078125 0zm2.203125 -3.125l2.578125 0l-0.796875 -2.125q-0.359375 -0.953125 -0.53125 -1.578125q-0.15625 0.734375 -0.421875 1.453125l-0.828125 2.25zm5.6232605 5.25l0 -7.65625l0.859375 0l0 0.71875q0.296875 -0.421875 0.671875 -0.625q0.390625 -0.21875 0.921875 -0.21875q0.703125 0 1.25 0.375q0.546875 0.359375 0.8125 1.03125q0.2812481 0.65625 0.2812481 1.453125q0 0.84375 -0.3124981 1.53125q-0.296875 0.671875 -0.875 1.03125q-0.578125 0.359375 -1.21875 0.359375q-0.46875 0 -0.84375 -0.1875q-0.375 -0.203125 -0.609375 -0.515625l0 2.703125l-0.9375 0zm0.84375 -4.859375q0 1.0625 0.4375 1.578125q0.4375 0.515625 1.046875 0.515625q0.625 0 1.0625 -0.53125q0.453125 -0.53125 0.453125 -1.640625q0 -1.046875 -0.4375 -1.578125q-0.4375 -0.53125 -1.046875 -0.53125q-0.59375 0 -1.0625 0.5625q-0.453125 0.5625 -0.453125 1.625zm5.0827465 4.859375l0 -7.65625l0.859375 0l0 0.71875q0.296875 -0.421875 0.671875 -0.625q0.390625 -0.21875 0.921875 -0.21875q0.703125 0 1.25 0.375q0.546875 0.359375 0.8125 1.03125q0.28125 0.65625 0.28125 1.453125q0 0.84375 -0.3125 1.53125q-0.296875 0.671875 -0.875 1.03125q-0.578125 0.359375 -1.21875 0.359375q-0.46875 0 -0.84375 -0.1875q-0.375 -0.203125 -0.609375 -0.515625l0 2.703125l-0.9375 0zm0.84375 -4.859375q0 1.0625 0.4375 1.578125q0.4375 0.515625 1.046875 0.515625q0.625 0 1.0625 -0.53125q0.453125 -0.53125 0.453125 -1.640625q0 -1.046875 -0.4375 -1.578125q-0.4375 -0.53125 -1.046875 -0.53125q-0.59375 0 -1.0625 0.5625q-0.453125 0.5625 -0.453125 1.625zm5.0671234 2.734375l0 -7.625l0.9375 0l0 7.625l-0.9375 0zm2.3831024 -6.546875l0 -1.078125l0.9375 0l0 1.078125l-0.9375 0zm0 6.546875l0 -5.53125l0.9375 0l0 5.53125l-0.9375 0zm5.9768524 -2.03125l0.921875 0.125q-0.15625 0.953125 -0.78125 1.5q-0.625 0.53125 -1.53125 0.53125q-1.125 0 -1.8125 -0.734375q-0.6875 -0.75 -0.6875 -2.125q0 -0.90625 0.296875 -1.578125q0.296875 -0.671875 0.890625 -1.0q0.609375 -0.34375 1.328125 -0.34375q0.890625 0 1.46875 0.46875q0.578125 0.453125 0.734375 1.28125l-0.90625 0.140625q-0.140625 -0.546875 -0.46875 -0.828125q-0.328125 -0.28125 -0.796875 -0.28125q-0.703125 0 -1.15625 0.515625q-0.4375 0.5 -0.4375 1.59375q0 1.109375 0.421875 1.625q0.4375 0.5 1.125 0.5q0.546875 0 0.90625 -0.34375q0.375 -0.34375 0.484375 -1.046875zm5.328125 1.34375q-0.53125 0.453125 -1.015625 0.640625q-0.46875 0.171875 -1.015625 0.171875q-0.921875 0 -1.40625 -0.4375q-0.484375 -0.453125 -0.484375 -1.140625q0 -0.40625 0.171875 -0.734375q0.1875 -0.34375 0.484375 -0.546875q0.3125 -0.203125 0.6875 -0.3125q0.265625 -0.0625 0.828125 -0.140625q1.125 -0.125 1.671875 -0.3125q0 -0.203125 0 -0.25q0 -0.578125 -0.265625 -0.8125q-0.359375 -0.3125 -1.0625 -0.3125q-0.65625 0 -0.984375 0.234375q-0.3125 0.234375 -0.453125 0.8125l-0.921875 -0.125q0.125 -0.578125 0.40625 -0.9375q0.296875 -0.375 0.828125 -0.5625q0.546875 -0.203125 1.25 -0.203125q0.71875 0 1.15625 0.171875q0.4375 0.171875 0.640625 0.421875q0.21875 0.25 0.296875 0.640625q0.046875 0.234375 0.046875 0.859375l0 1.25q0 1.296875 0.0625 1.65625q0.0625 0.34375 0.234375 0.65625l-0.96875 0q-0.15625 -0.296875 -0.1875 -0.6875zm-0.078125 -2.078125q-0.515625 0.203125 -1.53125 0.34375q-0.578125 0.078125 -0.828125 0.1875q-0.234375 0.109375 -0.359375 0.3125q-0.125 0.1875 -0.125 0.4375q0 0.375 0.28125 0.625q0.28125 0.25 0.828125 0.25q0.53125 0 0.953125 -0.234375q0.421875 -0.234375 0.625 -0.65625q0.15625 -0.3125 0.15625 -0.9375l0 -0.328125zm4.4421234 1.921875l0.125 0.828125q-0.390625 0.09375 -0.703125 0.09375q-0.5 0 -0.78125 -0.15625q-0.28125 -0.171875 -0.40625 -0.4375q-0.109375 -0.265625 -0.109375 -1.109375l0 -3.171875l-0.6875 0l0 -0.734375l0.6875 0l0 -1.359375l0.9375 -0.5625l0 1.921875l0.9375 0l0 0.734375l-0.9375 0l0 3.234375q0 0.390625 0.046875 0.515625q0.046875 0.109375 0.15625 0.1875q0.109375 0.0625 0.328125 0.0625q0.15625 0 0.40625 -0.046875zm0.9137726 -5.703125l0 -1.078125l0.9375 0l0 1.078125l-0.9375 0zm0 6.546875l0 -5.53125l0.9375 0l0 5.53125l-0.9375 0zm2.0237274 -2.765625q0 -1.53125 0.84375 -2.265625q0.71875 -0.625 1.734375 -0.625q1.140625 0 1.8593788 0.75q0.734375 0.75 0.734375 2.0625q0 1.0625 -0.328125 1.6875q-0.3125 0.609375 -0.921875 0.953125q-0.6093788 0.328125 -1.3437538 0.328125q-1.15625 0 -1.875 -0.734375q-0.703125 -0.75 -0.703125 -2.15625zm0.953125 0q0 1.0625 0.46875 1.59375q0.46875 0.53125 1.15625 0.53125q0.703125 0 1.15625 -0.53125q0.4687538 -0.53125 0.4687538 -1.625q0 -1.015625 -0.4687538 -1.546875q-0.453125 -0.53125 -1.15625 -0.53125q-0.6875 0 -1.15625 0.53125q-0.46875 0.515625 -0.46875 1.578125zm5.317127 2.765625l0 -5.53125l0.84375 0l0 0.796875q0.609375 -0.921875 1.75 -0.921875q0.5 0 0.921875 0.1875q0.421875 0.171875 0.625 0.46875q0.21875 0.296875 0.296875 0.6875q0.046875 0.265625 0.046875 0.921875l0 3.390625l-0.9375 0l0 -3.359375q0 -0.578125 -0.109375 -0.859375q-0.109375 -0.28125 -0.390625 -0.453125q-0.265625 -0.171875 -0.640625 -0.171875q-0.59375 0 -1.03125 0.390625q-0.4375 0.375 -0.4375 1.4375l0 3.015625l-0.9375 0z" fill-rule="nonzero"/><path fill="#6fa8dc" d="m21.761154 185.60104l79.84252 0l0 47.93701l-79.84252 0z" fill-rule="evenodd"/><path stroke="#000000" stroke-width="1.0" stroke-linejoin="round" stroke-linecap="butt" d="m21.761154 185.60104l79.84252 0l0 47.93701l-79.84252 0z" fill-rule="evenodd"/><path fill="#000000" d="m32.3812 213.30956l0 -7.625l1.515625 0l1.796875 5.390625q0.25 0.765625 0.375 1.140625q0.125 -0.421875 0.40625 -1.234375l1.828125 -5.296875l1.34375 0l0 7.625l-0.96875 0l0 -6.390625l-2.21875 6.390625l-0.90625 0l-2.203125 -6.5l0 6.5l-0.96875 0zm14.6892395 -0.8125q0.703125 0.484375 1.296875 0.703125l-0.296875 0.703125q-0.828125 -0.296875 -1.640625 -0.9375q-0.859375 0.46875 -1.875 0.46875q-1.046875 0 -1.890625 -0.5q-0.828125 -0.5 -1.296875 -1.390625q-0.453125 -0.90625 -0.453125 -2.046875q0 -1.125 0.453125 -2.046875q0.46875 -0.9375 1.3125 -1.421875q0.84375 -0.484375 1.890625 -0.484375q1.0625 0 1.90625 0.5q0.84375 0.5 1.28125 1.40625q0.453125 0.90625 0.453125 2.046875q0 0.9375 -0.28125 1.6875q-0.28125 0.75 -0.859375 1.3125zm-2.234375 -1.296875q0.875 0.25 1.453125 0.734375q0.890625 -0.8125 0.890625 -2.4375q0 -0.9375 -0.328125 -1.625q-0.3125 -0.6875 -0.921875 -1.0625q-0.59375 -0.390625 -1.359375 -0.390625q-1.125 0 -1.875 0.78125q-0.734375 0.765625 -0.734375 2.296875q0 1.484375 0.734375 2.28125q0.734375 0.796875 1.875 0.796875q0.546875 0 1.03125 -0.203125q-0.484375 -0.3125 -1.0 -0.4375l0.234375 -0.734375zm6.6793976 2.109375l0 -6.734375l-2.515625 0l0 -0.890625l6.046871 0l0 0.890625l-2.5312462 0l0 6.734375l-1.0 0zm6.5092583 0l0 -6.734375l-2.515625 0l0 -0.890625l6.046875 0l0 0.890625l-2.53125 0l0 6.734375l-1.0 0zm12.777206 -2.671875l1.015625 0.25q-0.328125 1.25 -1.15625 1.90625q-0.8125 0.640625 -2.015625 0.640625q-1.234375 0 -2.0 -0.5q-0.765625 -0.5 -1.171875 -1.453125q-0.40625 -0.953125 -0.40625 -2.046875q0 -1.1875 0.453125 -2.078125q0.453125 -0.890625 1.296875 -1.34375q0.84375 -0.46875 1.84375 -0.46875q1.15625 0 1.9375 0.59375q0.78125 0.578125 1.078125 1.640625l-0.984375 0.234375q-0.265625 -0.84375 -0.78125 -1.21875q-0.5 -0.375 -1.265625 -0.375q-0.875 0 -1.46875 0.421875q-0.59375 0.421875 -0.828125 1.140625q-0.234375 0.703125 -0.234375 1.453125q0 0.96875 0.28125 1.703125q0.28125 0.71875 0.875 1.078125q0.59375 0.359375 1.296875 0.359375q0.84375 0 1.4375 -0.484375q0.59375 -0.5 0.796875 -1.453125zm2.1174774 2.671875l0 -7.625l0.9375 0l0 7.625l-0.9375 0zm2.3831024 -6.546875l0 -1.078125l0.9375 0l0 1.078125l-0.9375 0zm0 6.546875l0 -5.53125l0.9375 0l0 5.53125l-0.9375 0zm6.1487274 -1.78125l0.96875 0.125q-0.234375 0.84375 -0.859375 1.3125q-0.609375 0.46875 -1.578125 0.46875q-1.203125 0 -1.921875 -0.75q-0.703125 -0.75 -0.703125 -2.09375q0 -1.390625 0.71875 -2.15625q0.71875 -0.78125 1.859375 -0.78125q1.109375 0 1.8125 0.765625q0.703125 0.75 0.703125 2.125q0 0.078125 0 0.234375l-4.125 0q0.046875 0.921875 0.515625 1.40625q0.46875 0.484375 1.15625 0.484375q0.515625 0 0.875 -0.265625q0.359375 -0.28125 0.578125 -0.875zm-3.078125 -1.515625l3.09375 0q-0.0625 -0.6875 -0.359375 -1.046875q-0.453125 -0.53125 -1.15625 -0.53125q-0.640625 0 -1.09375 0.4375q-0.4375 0.421875 -0.484375 1.140625zm5.2233734 3.296875l0 -5.53125l0.84375 0l0 0.796875q0.609375 -0.921875 1.75 -0.921875q0.5 0 0.921875 0.1875q0.421875 0.171875 0.625 0.46875q0.21875 0.296875 0.296875 0.6875q0.046875 0.265625 0.046875 0.921875l0 3.390625l-0.9375 0l0 -3.359375q0 -0.578125 -0.109375 -0.859375q-0.109375 -0.28125 -0.390625 -0.453125q-0.265625 -0.171875 -0.640625 -0.171875q-0.59375 0 -1.03125 0.390625q-0.4375 0.375 -0.4375 1.4375l0 3.015625l-0.9375 0zm7.9733734 -0.84375l0.125 0.828125q-0.390625 0.09375 -0.703125 0.09375q-0.5 0 -0.78125 -0.15625q-0.28125 -0.171875 -0.40625 -0.4375q-0.109375 -0.265625 -0.109375 -1.109375l0 -3.171875l-0.6875 0l0 -0.734375l0.6875 0l0 -1.359375l0.9375 -0.5625l0 1.921875l0.9375 0l0 0.734375l-0.9375 0l0 3.234375q0 0.390625 0.046875 0.515625q0.046875 0.109375 0.15625 0.1875q0.109375 0.0625 0.328125 0.0625q0.15625 0 0.40625 -0.046875z" fill-rule="nonzero"/><path fill="#efefef" d="m136.69817 68.120735l266.2362 0l0 181.22833l-266.2362 0z" fill-rule="evenodd"/><path stroke="#000000" stroke-width="1.0" stroke-linejoin="round" stroke-linecap="butt" d="m136.69817 68.120735l266.2362 0l0 181.22833l-266.2362 0z" fill-rule="evenodd"/><path fill="#000000" d="m151.19817 86.186356l0 -1.125l4.03125 -0.015625l0 3.546875q-0.921875 0.75 -1.921875 1.125q-0.984375 0.359375 -2.03125 0.359375q-1.40625 0 -2.5625 -0.59375q-1.140625 -0.609375 -1.734375 -1.734375q-0.578125 -1.140625 -0.578125 -2.546875q0 -1.40625 0.578125 -2.609375q0.59375 -1.203125 1.6875 -1.78125q1.09375 -0.59375 2.515625 -0.59375q1.03125 0 1.859375 0.34375q0.84375 0.328125 1.3125 0.9375q0.484375 0.59375 0.734375 1.546875l-1.140625 0.3125q-0.21875 -0.71875 -0.53125 -1.140625q-0.3125 -0.421875 -0.90625 -0.671875q-0.59375 -0.25 -1.3125 -0.25q-0.875 0 -1.515625 0.265625q-0.625 0.265625 -1.015625 0.703125q-0.375 0.421875 -0.59375 0.9375q-0.359375 0.875 -0.359375 1.921875q0 1.265625 0.4375 2.125q0.4375 0.859375 1.265625 1.28125q0.84375 0.421875 1.796875 0.421875q0.8125 0 1.59375 -0.3125q0.78125 -0.328125 1.1875 -0.6875l0 -1.765625l-2.796875 0zm5.30455 0.28125q0 -1.921875 1.078125 -2.84375q0.890625 -0.765625 2.171875 -0.765625q1.421875 0 2.328125 0.9375q0.90625 0.921875 0.90625 2.578125q0 1.328125 -0.40625 2.09375q-0.390625 0.765625 -1.15625 1.1875q-0.765625 0.421875 -1.671875 0.421875q-1.453125 0 -2.359375 -0.921875q-0.890625 -0.9375 -0.890625 -2.6875zm1.203125 0q0 1.328125 0.578125 1.984375q0.59375 0.65625 1.46875 0.65625q0.875 0 1.453125 -0.65625q0.578125 -0.671875 0.578125 -2.03125q0 -1.28125 -0.59375 -1.9375q-0.578125 -0.65625 -1.4375 -0.65625q-0.875 0 -1.46875 0.65625q-0.578125 0.65625 -0.578125 1.984375zm6.2093506 0q0 -1.921875 1.078125 -2.84375q0.890625 -0.765625 2.171875 -0.765625q1.421875 0 2.328125 0.9375q0.90625 0.921875 0.90625 2.578125q0 1.328125 -0.40625 2.09375q-0.390625 0.765625 -1.15625 1.1875q-0.765625 0.421875 -1.671875 0.421875q-1.453125 0 -2.359375 -0.921875q-0.890625 -0.9375 -0.890625 -2.6875zm1.203125 0q0 1.328125 0.578125 1.984375q0.59375 0.65625 1.46875 0.65625q0.875 0 1.453125 -0.65625q0.578125 -0.671875 0.578125 -2.03125q0 -1.28125 -0.59375 -1.9375q-0.578125 -0.65625 -1.4375 -0.65625q-0.875 0 -1.46875 0.65625q-0.578125 0.65625 -0.578125 1.984375zm6.4281006 4.03125l1.140625 0.15625q0.078125 0.53125 0.40625 0.78125q0.4375 0.3125 1.1875 0.3125q0.8125 0 1.25 -0.328125q0.453125 -0.3125 0.609375 -0.90625q0.09375 -0.359375 0.078125 -1.5q-0.765625 0.90625 -1.90625 0.90625q-1.4375 0 -2.21875 -1.03125q-0.78125 -1.03125 -0.78125 -2.46875q0 -0.984375 0.359375 -1.8125q0.359375 -0.84375 1.03125 -1.296875q0.6875 -0.453125 1.609375 -0.453125q1.21875 0 2.015625 0.984375l0 -0.828125l1.078125 0l0 5.96875q0 1.609375 -0.328125 2.28125q-0.328125 0.6875 -1.046875 1.078125q-0.703125 0.390625 -1.75 0.390625q-1.234375 0 -2.0 -0.5625q-0.75 -0.5625 -0.734375 -1.671875zm0.984375 -4.15625q0 1.359375 0.53125 1.984375q0.546875 0.625 1.359375 0.625q0.796875 0 1.34375 -0.625q0.546875 -0.625 0.546875 -1.953125q0 -1.265625 -0.5625 -1.90625q-0.5625 -0.640625 -1.359375 -0.640625q-0.765625 0 -1.3125 0.640625q-0.546875 0.625 -0.546875 1.875zm6.6312256 3.578125l0 -9.546875l1.171875 0l0 9.546875l-1.171875 0zm7.71109 -2.21875l1.203125 0.140625q-0.28125 1.0625 -1.0625 1.65625q-0.765625 0.578125 -1.96875 0.578125q-1.515625 0 -2.40625 -0.9375q-0.890625 -0.9375 -0.890625 -2.609375q0 -1.75 0.890625 -2.703125q0.90625 -0.96875 2.34375 -0.96875q1.390625 0 2.265625 0.9375q0.875 0.9375 0.875 2.65625q0 0.109375 0 0.3125l-5.15625 0q0.0625 1.140625 0.640625 1.75q0.578125 0.59375 1.4375 0.59375q0.65625 0 1.109375 -0.328125q0.453125 -0.34375 0.71875 -1.078125zm-3.84375 -1.90625l3.859375 0q-0.078125 -0.859375 -0.4375 -1.296875q-0.5625 -0.6875 -1.453125 -0.6875q-0.8125 0 -1.359375 0.546875q-0.546875 0.53125 -0.609375 1.4375zm17.177963 0.78125l1.265625 0.3125q-0.390625 1.5625 -1.421875 2.375q-1.03125 0.8125 -2.53125 0.8125q-1.53125 0 -2.5 -0.625q-0.96875 -0.625 -1.484375 -1.8125q-0.5 -1.1875 -0.5 -2.5625q0 -1.484375 0.5625 -2.59375q0.578125 -1.109375 1.625 -1.6875q1.0625 -0.578125 2.328125 -0.578125q1.421875 0 2.390625 0.734375q0.984375 0.71875 1.375 2.046875l-1.25 0.296875q-0.328125 -1.046875 -0.96875 -1.515625q-0.625 -0.484375 -1.578125 -0.484375q-1.09375 0 -1.84375 0.53125q-0.734375 0.53125 -1.03125 1.421875q-0.296875 0.875 -0.296875 1.828125q0 1.21875 0.34375 2.125q0.359375 0.90625 1.109375 1.359375q0.75 0.4375 1.625 0.4375q1.0625 0 1.796875 -0.609375q0.734375 -0.609375 0.984375 -1.8125zm2.6564026 3.34375l0 -9.546875l1.171875 0l0 9.546875l-1.171875 0zm2.539215 -3.453125q0 -1.921875 1.078125 -2.84375q0.890625 -0.765625 2.171875 -0.765625q1.421875 0 2.328125 0.9375q0.90625 0.921875 0.90625 2.578125q0 1.328125 -0.40625 2.09375q-0.390625 0.765625 -1.15625 1.1875q-0.765625 0.421875 -1.671875 0.421875q-1.453125 0 -2.359375 -0.921875q-0.890625 -0.9375 -0.890625 -2.6875zm1.203125 0q0 1.328125 0.578125 1.984375q0.59375 0.65625 1.46875 0.65625q0.875 0 1.453125 -0.65625q0.578125 -0.671875 0.578125 -2.03125q0 -1.28125 -0.59375 -1.9375q-0.578125 -0.65625 -1.4375 -0.65625q-0.875 0 -1.46875 0.65625q-0.578125 0.65625 -0.578125 1.984375zm11.178101 3.453125l0 -1.015625q-0.8125 1.171875 -2.1875 1.171875q-0.609375 0 -1.140625 -0.234375q-0.53125 -0.234375 -0.796875 -0.578125q-0.25 -0.359375 -0.359375 -0.875q-0.0625 -0.34375 -0.0625 -1.09375l0 -4.28125l1.171875 0l0 3.828125q0 0.921875 0.0625 1.234375q0.109375 0.46875 0.46875 0.734375q0.359375 0.25 0.890625 0.25q0.515625 0 0.984375 -0.265625q0.46875 -0.265625 0.65625 -0.734375q0.1875 -0.46875 0.1875 -1.34375l0 -3.703125l1.171875 0l0 6.90625l-1.046875 0zm7.3656006 0l0 -0.875q-0.65625 1.03125 -1.9375 1.03125q-0.8125 0 -1.515625 -0.453125q-0.6875 -0.453125 -1.078125 -1.265625q-0.375 -0.828125 -0.375 -1.890625q0 -1.03125 0.34375 -1.875q0.34375 -0.84375 1.03125 -1.28125q0.703125 -0.453125 1.546875 -0.453125q0.625 0 1.109375 0.265625q0.5 0.25 0.796875 0.671875l0 -3.421875l1.171875 0l0 9.546875l-1.09375 0zm-3.703125 -3.453125q0 1.328125 0.5625 1.984375q0.5625 0.65625 1.328125 0.65625q0.765625 0 1.296875 -0.625q0.53125 -0.625 0.53125 -1.90625q0 -1.421875 -0.546875 -2.078125q-0.546875 -0.671875 -1.34375 -0.671875q-0.78125 0 -1.3125 0.640625q-0.515625 0.625 -0.515625 2.0z" fill-rule="nonzero"/><path fill="#000000" d="m146.72942 105.92073l0 -9.546875l3.59375 0q0.953125 0 1.453125 0.09375q0.703125 0.125 1.171875 0.453125q0.484375 0.328125 0.765625 0.921875q0.296875 0.59375 0.296875 1.296875q0 1.21875 -0.78125 2.0625q-0.765625 0.84375 -2.796875 0.84375l-2.4375 0l0 3.875l-1.265625 0zm1.265625 -5.0l2.453125 0q1.234375 0 1.75 -0.453125q0.515625 -0.46875 0.515625 -1.28125q0 -0.609375 -0.3125 -1.03125q-0.296875 -0.421875 -0.796875 -0.5625q-0.3125 -0.09375 -1.171875 -0.09375l-2.4375 0l0 3.421875zm7.4522552 5.0l0 -9.546875l1.171875 0l0 9.546875l-1.171875 0zm7.49234 -0.859375q-0.65625 0.5625 -1.265625 0.796875q-0.59375 0.21875 -1.28125 0.21875q-1.140625 0 -1.75 -0.546875q-0.609375 -0.5625 -0.609375 -1.4375q0 -0.5 0.21875 -0.921875q0.234375 -0.421875 0.609375 -0.671875q0.375 -0.25 0.84375 -0.390625q0.34375 -0.078125 1.046875 -0.171875q1.421875 -0.171875 2.09375 -0.40625q0 -0.234375 0 -0.296875q0 -0.71875 -0.328125 -1.015625q-0.453125 -0.390625 -1.34375 -0.390625q-0.8125 0 -1.21875 0.296875q-0.390625 0.28125 -0.578125 1.015625l-1.140625 -0.15625q0.15625 -0.734375 0.515625 -1.1875q0.359375 -0.453125 1.03125 -0.6875q0.671875 -0.25 1.5625 -0.25q0.890625 0 1.4375 0.203125q0.5625 0.203125 0.8125 0.53125q0.265625 0.3125 0.375 0.796875q0.046875 0.296875 0.046875 1.078125l0 1.5625q0 1.625 0.078125 2.0625q0.078125 0.4375 0.296875 0.828125l-1.21875 0q-0.1875 -0.359375 -0.234375 -0.859375zm-0.09375 -2.609375q-0.640625 0.265625 -1.921875 0.4375q-0.71875 0.109375 -1.015625 0.25q-0.296875 0.125 -0.46875 0.375q-0.15625 0.25 -0.15625 0.546875q0 0.46875 0.34375 0.78125q0.359375 0.3125 1.046875 0.3125q0.671875 0 1.203125 -0.296875q0.53125 -0.296875 0.78125 -0.8125q0.1875 -0.390625 0.1875 -1.171875l0 -0.421875zm5.5531006 2.421875l0.171875 1.03125q-0.5 0.109375 -0.890625 0.109375q-0.640625 0 -1.0 -0.203125q-0.34375 -0.203125 -0.484375 -0.53125q-0.140625 -0.328125 -0.140625 -1.390625l0 -3.96875l-0.859375 0l0 -0.90625l0.859375 0l0 -1.71875l1.171875 -0.703125l0 2.421875l1.171875 0l0 0.90625l-1.171875 0l0 4.046875q0 0.5 0.046875 0.640625q0.0625 0.140625 0.203125 0.234375q0.140625 0.078125 0.40625 0.078125q0.203125 0 0.515625 -0.046875zm1.4217377 1.046875l0 -6.0l-1.03125 0l0 -0.90625l1.03125 0l0 -0.734375q0 -0.703125 0.125 -1.046875q0.171875 -0.453125 0.59375 -0.734375q0.421875 -0.28125 1.203125 -0.28125q0.484375 0 1.09375 0.109375l-0.1875 1.03125q-0.359375 -0.0625 -0.6875 -0.0625q-0.53125 0 -0.75 0.234375q-0.21875 0.21875 -0.21875 0.84375l0 0.640625l1.34375 0l0 0.90625l-1.34375 0l0 6.0l-1.171875 0zm2.9842377 -3.453125q0 -1.921875 1.078125 -2.84375q0.890625 -0.765625 2.171875 -0.765625q1.421875 0 2.328125 0.9375q0.90625 0.921875 0.90625 2.578125q0 1.328125 -0.40625 2.09375q-0.390625 0.765625 -1.15625 1.1875q-0.765625 0.421875 -1.671875 0.421875q-1.453125 0 -2.359375 -0.921875q-0.890625 -0.9375 -0.890625 -2.6875zm1.203125 0q0 1.328125 0.578125 1.984375q0.59375 0.65625 1.46875 0.65625q0.875 0 1.453125 -0.65625q0.578125 -0.671875 0.578125 -2.03125q0 -1.28125 -0.59375 -1.9375q-0.578125 -0.65625 -1.4375 -0.65625q-0.875 0 -1.46875 0.65625q-0.578125 0.65625 -0.578125 1.984375zm6.6312256 3.453125l0 -6.90625l1.0625 0l0 1.046875q0.40625 -0.734375 0.734375 -0.96875q0.34375 -0.234375 0.765625 -0.234375q0.59375 0 1.203125 0.375l-0.40625 1.078125q-0.4375 -0.25 -0.859375 -0.25q-0.390625 0 -0.703125 0.234375q-0.296875 0.234375 -0.421875 0.640625q-0.203125 0.625 -0.203125 1.359375l0 3.625l-1.171875 0zm4.4539948 0l0 -6.90625l1.046875 0l0 0.96875q0.328125 -0.515625 0.859375 -0.8125q0.546875 -0.3125 1.234375 -0.3125q0.78125 0 1.265625 0.3125q0.484375 0.3125 0.6875 0.890625q0.828125 -1.203125 2.140625 -1.203125q1.03125 0 1.578125 0.578125q0.5625 0.5625 0.5625 1.734375l0 4.75l-1.171875 0l0 -4.359375q0 -0.703125 -0.125 -1.0q-0.109375 -0.3125 -0.40625 -0.5q-0.296875 -0.1875 -0.703125 -0.1875q-0.71875 0 -1.203125 0.484375q-0.484375 0.484375 -0.484375 1.546875l0 4.015625l-1.171875 0l0 -4.484375q0 -0.78125 -0.296875 -1.171875q-0.28125 -0.390625 -0.921875 -0.390625q-0.5 0 -0.921875 0.265625q-0.421875 0.25 -0.609375 0.75q-0.1875 0.5 -0.1875 1.453125l0 3.578125l-1.171875 0zm17.05542 2.8125q-0.984375 -1.234375 -1.65625 -2.875q-0.65625 -1.640625 -0.65625 -3.390625q0 -1.546875 0.5 -2.96875q0.578125 -1.640625 1.8125 -3.28125l0.828125 0q-0.78125 1.359375 -1.03125 1.9375q-0.40625 0.890625 -0.625 1.875q-0.28125 1.21875 -0.28125 2.4375q0 3.140625 1.9375 6.265625l-0.828125 0zm9.141495 -6.15625l1.265625 0.3125q-0.390625 1.5625 -1.421875 2.375q-1.03125 0.8125 -2.53125 0.8125q-1.53125 0 -2.5 -0.625q-0.96875 -0.625 -1.484375 -1.8125q-0.5 -1.1875 -0.5 -2.5625q0 -1.484375 0.5625 -2.59375q0.578125 -1.109375 1.625 -1.6875q1.0625 -0.578125 2.328125 -0.578125q1.421875 0 2.390625 0.734375q0.984375 0.71875 1.375 2.046875l-1.25 0.296875q-0.328125 -1.046875 -0.96875 -1.515625q-0.625 -0.484375 -1.578125 -0.484375q-1.09375 0 -1.84375 0.53125q-0.734375 0.53125 -1.03125 1.421875q-0.296875 0.875 -0.296875 1.828125q0 1.21875 0.34375 2.125q0.359375 0.90625 1.109375 1.359375q0.75 0.4375 1.625 0.4375q1.0625 0 1.796875 -0.609375q0.734375 -0.609375 0.984375 -1.8125zm2.6564026 3.34375l0 -9.546875l1.171875 0l0 9.546875l-1.171875 0zm2.539215 -3.453125q0 -1.921875 1.078125 -2.84375q0.890625 -0.765625 2.171875 -0.765625q1.421875 0 2.328125 0.9375q0.90625 0.921875 0.90625 2.578125q0 1.328125 -0.40625 2.09375q-0.390625 0.765625 -1.15625 1.1875q-0.765625 0.421875 -1.671875 0.421875q-1.453125 0 -2.359375 -0.921875q-0.890625 -0.9375 -0.890625 -2.6875zm1.203125 0q0 1.328125 0.578125 1.984375q0.59375 0.65625 1.46875 0.65625q0.875 0 1.453125 -0.65625q0.578125 -0.671875 0.578125 -2.03125q0 -1.28125 -0.59375 -1.9375q-0.578125 -0.65625 -1.4375 -0.65625q-0.875 0 -1.46875 0.65625q-0.578125 0.65625 -0.578125 1.984375zm11.178101 3.453125l0 -1.015625q-0.8125 1.171875 -2.1875 1.171875q-0.609375 0 -1.140625 -0.234375q-0.53125 -0.234375 -0.796875 -0.578125q-0.25 -0.359375 -0.359375 -0.875q-0.0625 -0.34375 -0.0625 -1.09375l0 -4.28125l1.171875 0l0 3.828125q0 0.921875 0.0625 1.234375q0.109375 0.46875 0.46875 0.734375q0.359375 0.25 0.890625 0.25q0.515625 0 0.984375 -0.265625q0.46875 -0.265625 0.65625 -0.734375q0.1875 -0.46875 0.1875 -1.34375l0 -3.703125l1.171875 0l0 6.90625l-1.046875 0zm7.3656006 0l0 -0.875q-0.65625 1.03125 -1.9375 1.03125q-0.8125 0 -1.515625 -0.453125q-0.6875 -0.453125 -1.078125 -1.265625q-0.375 -0.828125 -0.375 -1.890625q0 -1.03125 0.34375 -1.875q0.34375 -0.84375 1.03125 -1.28125q0.703125 -0.453125 1.546875 -0.453125q0.625 0 1.109375 0.265625q0.5 0.25 0.796875 0.671875l0 -3.421875l1.171875 0l0 9.546875l-1.09375 0zm-3.703125 -3.453125q0 1.328125 0.5625 1.984375q0.5625 0.65625 1.328125 0.65625q0.765625 0 1.296875 -0.625q0.53125 -0.625 0.53125 -1.90625q0 -1.421875 -0.546875 -2.078125q-0.546875 -0.671875 -1.34375 -0.671875q-0.78125 0 -1.3125 0.640625q-0.515625 0.625 -0.515625 2.0zm7.3968506 6.265625l-0.828125 0q1.9375 -3.125 1.9375 -6.265625q0 -1.21875 -0.28125 -2.421875q-0.21875 -0.984375 -0.609375 -1.875q-0.265625 -0.59375 -1.046875 -1.953125l0.828125 0q1.234375 1.640625 1.8125 3.28125q0.5 1.421875 0.5 2.96875q0 1.75 -0.671875 3.390625q-0.671875 1.640625 -1.640625 2.875z" fill-rule="nonzero"/><path fill="#cfe2f3" d="m138.6063 111.727036l177.41733 0l0 127.87401l-177.41733 0z" fill-rule="evenodd"/><path stroke="#000000" stroke-width="1.0" stroke-linejoin="round" stroke-linecap="butt" d="m138.6063 111.727036l177.41733 0l0 127.87401l-177.41733 0z" fill-rule="evenodd"/><path fill="#000000" d="m148.6063 130.96704l0 -7.6250076l1.0 0l0 7.6250076l-1.0 0zm2.3200226 -2.765625q0 -1.5312576 0.84375 -2.2656326q0.71875 -0.625 1.734375 -0.625q1.140625 0 1.859375 0.75q0.734375 0.75 0.734375 2.0625076q0 1.0625 -0.328125 1.6875q-0.3125 0.609375 -0.921875 0.953125q-0.609375 0.328125 -1.34375 0.328125q-1.15625 0 -1.875 -0.734375q-0.703125 -0.75 -0.703125 -2.15625zm0.953125 0q0 1.0625 0.46875 1.59375q0.46875 0.53125 1.15625 0.53125q0.703125 0 1.15625 -0.53125q0.46875 -0.53125 0.46875 -1.625q0 -1.0156326 -0.46875 -1.5468826q-0.453125 -0.53125 -1.15625 -0.53125q-0.6875 0 -1.15625 0.53125q-0.46875 0.515625 -0.46875 1.5781326zm7.3796234 2.765625l0 -6.7343826l-2.515625 0l0 -0.890625l6.046875 0l0 0.890625l-2.53125 0l0 6.7343826l-1.0 0zm12.777206 -2.671875l1.015625 0.25q-0.328125 1.25 -1.15625 1.90625q-0.8125 0.640625 -2.015625 0.640625q-1.234375 0 -2.0 -0.5q-0.765625 -0.5 -1.171875 -1.453125q-0.40625 -0.953125 -0.40625 -2.0468826q0 -1.1875 0.453125 -2.078125q0.453125 -0.890625 1.296875 -1.34375q0.84375 -0.46875 1.84375 -0.46875q1.15625 0 1.9375 0.59375q0.78125 0.578125 1.078125 1.640625l-0.984375 0.234375q-0.265625 -0.84375 -0.78125 -1.21875q-0.5 -0.375 -1.265625 -0.375q-0.875 0 -1.46875 0.421875q-0.59375 0.421875 -0.828125 1.140625q-0.234375 0.703125 -0.234375 1.453125q0 0.9687576 0.28125 1.7031326q0.28125 0.71875 0.875 1.078125q0.59375 0.359375 1.296875 0.359375q0.84375 0 1.4375 -0.484375q0.59375 -0.5 0.796875 -1.453125zm1.7893524 -0.09375q0 -1.5312576 0.84375 -2.2656326q0.71875 -0.625 1.734375 -0.625q1.140625 0 1.859375 0.75q0.734375 0.75 0.734375 2.0625076q0 1.0625 -0.328125 1.6875q-0.3125 0.609375 -0.921875 0.953125q-0.609375 0.328125 -1.34375 0.328125q-1.15625 0 -1.875 -0.734375q-0.703125 -0.75 -0.703125 -2.15625zm0.953125 0q0 1.0625 0.46875 1.59375q0.46875 0.53125 1.15625 0.53125q0.703125 0 1.15625 -0.53125q0.46875 -0.53125 0.46875 -1.625q0 -1.0156326 -0.46875 -1.5468826q-0.453125 -0.53125 -1.15625 -0.53125q-0.6875 0 -1.15625 0.53125q-0.46875 0.515625 -0.46875 1.5781326zm5.3014984 2.765625l0 -5.5312576l0.84375 0l0 0.84375q0.328125 -0.59375 0.59375 -0.78125q0.28125 -0.1875 0.609375 -0.1875q0.46875 0 0.953125 0.3125l-0.3125 0.859375q-0.34375 -0.203125 -0.6875 -0.203125q-0.3125 0 -0.5625 0.1875q-0.234375 0.1875 -0.34375 0.515625q-0.15625 0.5 -0.15625 1.0937576l0 2.890625l-0.9375 0zm7.3454895 -1.78125l0.96875 0.125q-0.234375 0.84375 -0.859375 1.3125q-0.609375 0.46875 -1.578125 0.46875q-1.203125 0 -1.921875 -0.75q-0.703125 -0.75 -0.703125 -2.09375q0 -1.3906326 0.71875 -2.1562576q0.71875 -0.78125 1.859375 -0.78125q1.109375 0 1.8125 0.765625q0.703125 0.75 0.703125 2.1250076q0 0.078125 0 0.234375l-4.125 0q0.046875 0.921875 0.515625 1.40625q0.46875 0.484375 1.15625 0.484375q0.515625 0 0.875 -0.265625q0.359375 -0.28125 0.578125 -0.875zm-3.078125 -1.5156326l3.09375 0q-0.0625 -0.6875 -0.359375 -1.046875q-0.453125 -0.53125 -1.15625 -0.53125q-0.640625 0 -1.09375 0.4375q-0.4375 0.421875 -0.484375 1.140625z" fill-rule="nonzero"/><path fill="#000000" fill-opacity="0.0" d="m269.81628 56.322834l0 97.95276l-54.110245 0" fill-rule="evenodd"/><path stroke="#000000" stroke-width="1.0" stroke-linejoin="round" stroke-linecap="butt" d="m269.81628 56.322834l0 97.95276l-54.110245 0" fill-rule="evenodd"/><path fill="#000000" fill-opacity="0.0" d="m299.31235 209.56824l12.939697 0l0 0.06300354l12.950043 0" fill-rule="evenodd"/><path stroke="#000000" stroke-width="1.0" stroke-linejoin="round" stroke-linecap="butt" d="m299.31235 209.56824l12.939697 0l0 0.06300354l12.950043 0" fill-rule="evenodd"/><path fill="#000000" fill-opacity="0.0" d="m181.93964 195.14305l0 -26.456696" fill-rule="evenodd"/><path stroke="#000000" stroke-width="1.0" stroke-linejoin="round" stroke-linecap="butt" d="m181.93964 195.14305l0 -26.456696" fill-rule="evenodd"/><path fill="#000000" fill-opacity="0.0" d="m101.603676 209.56955l23.286217 0l0 0.06300354l23.296463 0" fill-rule="evenodd"/><path stroke="#000000" stroke-width="1.0" stroke-linejoin="round" stroke-linecap="butt" d="m101.603676 209.56955l23.286217 0l0 0.06300354l23.296463 0" fill-rule="evenodd"/><path fill="#6fa8dc" d="m148.17455 139.83989l67.52756 0l0 28.850403l-67.52756 0z" fill-rule="evenodd"/><path stroke="#000000" stroke-width="1.0" stroke-linejoin="round" stroke-linecap="butt" d="m148.17455 139.83989l67.52756 0l0 28.850403l-67.52756 0z" fill-rule="evenodd"/><path fill="#000000" d="m166.48029 151.5051l0 -7.625l2.625 0q0.890625 0 1.359375 0.109375q0.65625 0.140625 1.109375 0.546875q0.609375 0.5 0.90625 1.296875q0.296875 0.796875 0.296875 1.8125q0 0.875 -0.203125 1.546875q-0.203125 0.671875 -0.515625 1.109375q-0.3125 0.4375 -0.703125 0.6875q-0.375 0.25 -0.90625 0.390625q-0.53125 0.125 -1.21875 0.125l-2.75 0zm1.0 -0.90625l1.625 0q0.765625 0 1.1875 -0.140625q0.4375 -0.140625 0.6875 -0.390625q0.359375 -0.359375 0.5625 -0.953125q0.203125 -0.609375 0.203125 -1.484375q0 -1.1875 -0.40625 -1.828125q-0.390625 -0.65625 -0.953125 -0.875q-0.40625 -0.15625 -1.296875 -0.15625l-1.609375 0l0 5.828125zm10.351852 -0.875l0.96875 0.125q-0.234375 0.84375 -0.859375 1.3125q-0.609375 0.46875 -1.578125 0.46875q-1.203125 0 -1.921875 -0.75q-0.703125 -0.75 -0.703125 -2.09375q0 -1.390625 0.71875 -2.15625q0.71875 -0.78125 1.859375 -0.78125q1.109375 0 1.8125 0.765625q0.703125 0.75 0.703125 2.125q0 0.078125 0 0.234375l-4.125 0q0.046875 0.921875 0.515625 1.40625q0.46875 0.484375 1.15625 0.484375q0.515625 0 0.875 -0.265625q0.359375 -0.28125 0.578125 -0.875zm-3.078125 -1.515625l3.09375 0q-0.0625 -0.6875 -0.359375 -1.046875q-0.453125 -0.53125 -1.15625 -0.53125q-0.640625 0 -1.09375 0.4375q-0.4375 0.421875 -0.484375 1.140625zm6.7546234 3.296875l-2.09375 -5.53125l0.984375 0l1.1875 3.3125q0.1875 0.53125 0.359375 1.109375q0.109375 -0.4375 0.34375 -1.046875l1.21875 -3.375l0.96875 0l-2.09375 5.53125l-0.875 0zm3.796875 -6.546875l0 -1.078125l0.9375 0l0 1.078125l-0.9375 0zm0 6.546875l0 -5.53125l0.9375 0l0 5.53125l-0.9375 0zm5.9768524 -2.03125l0.921875 0.125q-0.15625 0.953125 -0.78125 1.5q-0.625 0.53125 -1.53125 0.53125q-1.125 0 -1.8125 -0.734375q-0.6875 -0.75 -0.6875 -2.125q0 -0.90625 0.296875 -1.578125q0.296875 -0.671875 0.890625 -1.0q0.609375 -0.34375 1.328125 -0.34375q0.890625 0 1.46875 0.46875q0.578125 0.453125 0.734375 1.28125l-0.90625 0.140625q-0.140625 -0.546875 -0.46875 -0.828125q-0.328125 -0.28125 -0.796875 -0.28125q-0.703125 0 -1.15625 0.515625q-0.4375 0.5 -0.4375 1.59375q0 1.109375 0.421875 1.625q0.4375 0.5 1.125 0.5q0.546875 0 0.90625 -0.34375q0.375 -0.34375 0.484375 -1.046875zm5.5 0.25l0.96875 0.125q-0.234375 0.84375 -0.859375 1.3125q-0.609375 0.46875 -1.578125 0.46875q-1.203125 0 -1.921875 -0.75q-0.703125 -0.75 -0.703125 -2.09375q0 -1.390625 0.71875 -2.15625q0.71875 -0.78125 1.859375 -0.78125q1.109375 0 1.8125 0.765625q0.703125 0.75 0.703125 2.125q0 0.078125 0 0.234375l-4.125 0q0.046875 0.921875 0.515625 1.40625q0.46875 0.484375 1.15625 0.484375q0.515625 0 0.875 -0.265625q0.359375 -0.28125 0.578125 -0.875zm-3.078125 -1.515625l3.09375 0q-0.0625 -0.6875 -0.359375 -1.046875q-0.453125 -0.53125 -1.15625 -0.53125q-0.640625 0 -1.09375 0.4375q-0.4375 0.421875 -0.484375 1.140625z" fill-rule="nonzero"/><path fill="#000000" d="m161.70627 164.5051l0 -7.625l1.515625 0l1.796875 5.390625q0.25 0.765625 0.375 1.140625q0.125 -0.421875 0.40625 -1.234375l1.828125 -5.296875l1.34375 0l0 7.625l-0.96875 0l0 -6.390625l-2.21875 6.390625l-0.90625 0l-2.203125 -6.5l0 6.5l-0.96875 0zm12.3923645 -0.6875q-0.53125 0.453125 -1.015625 0.640625q-0.46875 0.171875 -1.015625 0.171875q-0.921875 0 -1.40625 -0.4375q-0.484375 -0.453125 -0.484375 -1.140625q0 -0.40625 0.171875 -0.734375q0.1875 -0.34375 0.484375 -0.546875q0.3125 -0.203125 0.6875 -0.3125q0.265625 -0.0625 0.828125 -0.140625q1.125 -0.125 1.671875 -0.3125q0 -0.203125 0 -0.25q0 -0.578125 -0.265625 -0.8125q-0.359375 -0.3125 -1.0625 -0.3125q-0.65625 0 -0.984375 0.234375q-0.3125 0.234375 -0.453125 0.8125l-0.921875 -0.125q0.125 -0.578125 0.40625 -0.9375q0.296875 -0.375 0.828125 -0.5625q0.546875 -0.203125 1.25 -0.203125q0.71875 0 1.15625 0.171875q0.4375 0.171875 0.640625 0.421875q0.21875 0.25 0.296875 0.640625q0.046875 0.234375 0.046875 0.859375l0 1.25q0 1.296875 0.0625 1.65625q0.0625 0.34375 0.234375 0.65625l-0.96875 0q-0.15625 -0.296875 -0.1875 -0.6875zm-0.078125 -2.078125q-0.515625 0.203125 -1.53125 0.34375q-0.578125 0.078125 -0.828125 0.1875q-0.234375 0.109375 -0.359375 0.3125q-0.125 0.1875 -0.125 0.4375q0 0.375 0.28125 0.625q0.28125 0.25 0.828125 0.25q0.53125 0 0.953125 -0.234375q0.421875 -0.234375 0.625 -0.65625q0.15625 -0.3125 0.15625 -0.9375l0 -0.328125zm2.3952484 2.765625l0 -5.53125l0.84375 0l0 0.796875q0.609375 -0.921875 1.75 -0.921875q0.5 0 0.921875 0.1875q0.421875 0.171875 0.625 0.46875q0.21875 0.296875 0.296875 0.6875q0.046875 0.265625 0.046875 0.921875l0 3.390625l-0.9375 0l0 -3.359375q0 -0.578125 -0.109375 -0.859375q-0.109375 -0.28125 -0.390625 -0.453125q-0.265625 -0.171875 -0.640625 -0.171875q-0.59375 0 -1.03125 0.390625q-0.4375 0.375 -0.4375 1.4375l0 3.015625l-0.9375 0zm9.535873 -0.6875q-0.53125 0.453125 -1.015625 0.640625q-0.46875 0.171875 -1.015625 0.171875q-0.921875 0 -1.40625 -0.4375q-0.484375 -0.453125 -0.484375 -1.140625q0 -0.40625 0.171875 -0.734375q0.1875 -0.34375 0.484375 -0.546875q0.3125 -0.203125 0.6875 -0.3125q0.265625 -0.0625 0.828125 -0.140625q1.125 -0.125 1.671875 -0.3125q0 -0.203125 0 -0.25q0 -0.578125 -0.265625 -0.8125q-0.359375 -0.3125 -1.0625 -0.3125q-0.65625 0 -0.984375 0.234375q-0.3125 0.234375 -0.453125 0.8125l-0.921875 -0.125q0.125 -0.578125 0.40625 -0.9375q0.296875 -0.375 0.828125 -0.5625q0.546875 -0.203125 1.25 -0.203125q0.71875 0 1.15625 0.171875q0.4375 0.171875 0.640625 0.421875q0.21875 0.25 0.296875 0.640625q0.046875 0.234375 0.046875 0.859375l0 1.25q0 1.296875 0.0625 1.65625q0.0625 0.34375 0.234375 0.65625l-0.96875 0q-0.15625 -0.296875 -0.1875 -0.6875zm-0.078125 -2.078125q-0.515625 0.203125 -1.53125 0.34375q-0.578125 0.078125 -0.828125 0.1875q-0.234375 0.109375 -0.359375 0.3125q-0.125 0.1875 -0.125 0.4375q0 0.375 0.28125 0.625q0.28125 0.25 0.828125 0.25q0.53125 0 0.953125 -0.234375q0.421875 -0.234375 0.625 -0.65625q0.15625 -0.3125 0.15625 -0.9375l0 -0.328125zm2.2233734 3.21875l0.90625 0.140625q0.0625 0.421875 0.328125 0.609375q0.34375 0.265625 0.9375 0.265625q0.65625 0 1.0 -0.265625q0.359375 -0.25 0.484375 -0.71875q0.078125 -0.296875 0.078125 -1.203125q-0.625 0.71875 -1.53125 0.71875q-1.140625 0 -1.765625 -0.8125q-0.625 -0.828125 -0.625 -1.984375q0 -0.78125 0.28125 -1.453125q0.296875 -0.671875 0.828125 -1.03125q0.546875 -0.375 1.28125 -0.375q0.984375 0 1.609375 0.796875l0 -0.671875l0.875 0l0 4.78125q0 1.296875 -0.265625 1.828125q-0.265625 0.546875 -0.84375 0.859375q-0.5625 0.3125 -1.390625 0.3125q-0.984375 0 -1.59375 -0.453125q-0.609375 -0.4375 -0.59375 -1.34375zm0.78125 -3.3125q0 1.078125 0.421875 1.578125q0.4375 0.5 1.078125 0.5q0.65625 0 1.09375 -0.484375q0.4375 -0.5 0.4375 -1.5625q0 -1.015625 -0.453125 -1.53125q-0.453125 -0.515625 -1.09375 -0.515625q-0.609375 0 -1.046875 0.515625q-0.4375 0.5 -0.4375 1.5zm9.098373 1.078125l0.96875 0.125q-0.234375 0.84375 -0.859375 1.3125q-0.609375 0.46875 -1.578125 0.46875q-1.203125 0 -1.921875 -0.75q-0.703125 -0.75 -0.703125 -2.09375q0 -1.390625 0.71875 -2.15625q0.71875 -0.78125 1.859375 -0.78125q1.109375 0 1.8125 0.765625q0.703125 0.75 0.703125 2.125q0 0.078125 0 0.234375l-4.125 0q0.046875 0.921875 0.515625 1.40625q0.46875 0.484375 1.15625 0.484375q0.515625 0 0.875 -0.265625q0.359375 -0.28125 0.578125 -0.875zm-3.078125 -1.515625l3.09375 0q-0.0625 -0.6875 -0.359375 -1.046875q-0.453125 -0.53125 -1.15625 -0.53125q-0.640625 0 -1.09375 0.4375q-0.4375 0.421875 -0.484375 1.140625zm5.2077484 3.296875l0 -5.53125l0.84375 0l0 0.84375q0.328125 -0.59375 0.59375 -0.78125q0.28125 -0.1875 0.609375 -0.1875q0.46875 0 0.953125 0.3125l-0.3125 0.859375q-0.34375 -0.203125 -0.6875 -0.203125q-0.3125 0 -0.5625 0.1875q-0.234375 0.1875 -0.34375 0.515625q-0.15625 0.5 -0.15625 1.09375l0 2.890625l-0.9375 0z" fill-rule="nonzero"/><path fill="#6fa8dc" d="m231.78477 195.14305l67.52757 0l0 28.850388l-67.52757 0z" fill-rule="evenodd"/><path stroke="#000000" stroke-width="1.0" stroke-linejoin="round" stroke-linecap="butt" d="m231.78477 195.14305l67.52757 0l0 28.850388l-67.52757 0z" fill-rule="evenodd"/><path fill="#000000" d="m255.12206 206.80824l0 -7.625l2.6250153 0q0.890625 0 1.359375 0.109375q0.65625 0.140625 1.109375 0.546875q0.609375 0.5 0.90625 1.296875q0.296875 0.796875 0.296875 1.8125q0 0.875 -0.203125 1.546875q-0.203125 0.671875 -0.515625 1.109375q-0.3125 0.4375 -0.703125 0.6875q-0.375 0.25 -0.90625 0.390625q-0.53125 0.125 -1.21875 0.125l-2.7500153 0zm1.0000153 -0.90625l1.625 0q0.765625 0 1.1875 -0.140625q0.4375 -0.140625 0.6875 -0.390625q0.359375 -0.359375 0.5625 -0.953125q0.203125 -0.609375 0.203125 -1.484375q0 -1.1875 -0.40625 -1.828125q-0.390625 -0.65625 -0.953125 -0.875q-0.40625 -0.15625 -1.296875 -0.15625l-1.609375 0l0 5.828125zm10.179962 0.21875q-0.53125 0.453125 -1.015625 0.640625q-0.46875 0.171875 -1.015625 0.171875q-0.921875 0 -1.40625 -0.4375q-0.484375 -0.453125 -0.484375 -1.140625q0 -0.40625 0.171875 -0.734375q0.1875 -0.34375 0.484375 -0.546875q0.3125 -0.203125 0.6875 -0.3125q0.265625 -0.0625 0.828125 -0.140625q1.125 -0.125 1.671875 -0.3125q0 -0.203125 0 -0.25q0 -0.578125 -0.265625 -0.8125q-0.359375 -0.3125 -1.0625 -0.3125q-0.65625 0 -0.984375 0.234375q-0.3125 0.234375 -0.453125 0.8125l-0.921875 -0.125q0.125 -0.578125 0.40625 -0.9375q0.296875 -0.375 0.828125 -0.5625q0.546875 -0.203125 1.25 -0.203125q0.71875 0 1.15625 0.171875q0.4375 0.171875 0.640625 0.421875q0.21875 0.25 0.296875 0.640625q0.046875 0.234375 0.046875 0.859375l0 1.25q0 1.296875 0.0625 1.65625q0.0625 0.34375 0.234375 0.65625l-0.96875 0q-0.15625 -0.296875 -0.1875 -0.6875zm-0.078125 -2.078125q-0.515625 0.203125 -1.53125 0.34375q-0.578125 0.078125 -0.828125 0.1875q-0.234375 0.109375 -0.359375 0.3125q-0.125 0.1875 -0.125 0.4375q0 0.375 0.28125 0.625q0.28125 0.25 0.828125 0.25q0.53125 0 0.953125 -0.234375q0.421875 -0.234375 0.625 -0.65625q0.15625 -0.3125 0.15625 -0.9375l0 -0.328125zm4.4421387 1.921875l0.125 0.828125q-0.390625 0.09375 -0.703125 0.09375q-0.5 0 -0.78125 -0.15625q-0.28125 -0.171875 -0.40625 -0.4375q-0.109375 -0.265625 -0.109375 -1.109375l0 -3.171875l-0.6875 0l0 -0.734375l0.6875 0l0 -1.359375l0.9375 -0.5625l0 1.921875l0.9375 0l0 0.734375l-0.9375 0l0 3.234375q0 0.390625 0.046875 0.515625q0.046875 0.109375 0.15625 0.1875q0.109375 0.0625 0.328125 0.0625q0.15625 0 0.40625 -0.046875zm4.5231323 0.15625q-0.53125 0.453125 -1.015625 0.640625q-0.46875 0.171875 -1.015625 0.171875q-0.921875 0 -1.40625 -0.4375q-0.484375 -0.453125 -0.484375 -1.140625q0 -0.40625 0.171875 -0.734375q0.1875 -0.34375 0.484375 -0.546875q0.3125 -0.203125 0.6875 -0.3125q0.265625 -0.0625 0.828125 -0.140625q1.125 -0.125 1.671875 -0.3125q0 -0.203125 0 -0.25q0 -0.578125 -0.265625 -0.8125q-0.359375 -0.3125 -1.0625 -0.3125q-0.65625 0 -0.984375 0.234375q-0.3125 0.234375 -0.453125 0.8125l-0.921875 -0.125q0.125 -0.578125 0.40625 -0.9375q0.296875 -0.375 0.828125 -0.5625q0.546875 -0.203125 1.25 -0.203125q0.71875 0 1.15625 0.171875q0.4375 0.171875 0.640625 0.421875q0.21875 0.25 0.296875 0.640625q0.046875 0.234375 0.046875 0.859375l0 1.25q0 1.296875 0.0625 1.65625q0.0625 0.34375 0.234375 0.65625l-0.96875 0q-0.15625 -0.296875 -0.1875 -0.6875zm-0.078125 -2.078125q-0.515625 0.203125 -1.53125 0.34375q-0.578125 0.078125 -0.828125 0.1875q-0.234375 0.109375 -0.359375 0.3125q-0.125 0.1875 -0.125 0.4375q0 0.375 0.28125 0.625q0.28125 0.25 0.828125 0.25q0.53125 0 0.953125 -0.234375q0.421875 -0.234375 0.625 -0.65625q0.15625 -0.3125 0.15625 -0.9375l0 -0.328125z" fill-rule="nonzero"/><path fill="#000000" d="m250.63681 219.80824l0 -7.625l2.859375 0q0.875 0 1.40625 0.234375q0.53125 0.21875 0.828125 0.703125q0.296875 0.484375 0.296875 1.015625q0 0.484375 -0.265625 0.921875q-0.265625 0.421875 -0.796875 0.6875q0.6875 0.203125 1.0625 0.703125q0.375 0.484375 0.375 1.140625q0 0.546875 -0.234375 1.015625q-0.21875 0.453125 -0.5625 0.703125q-0.328125 0.25 -0.828125 0.375q-0.5 0.125 -1.234375 0.125l-2.90625 0zm1.015625 -4.421875l1.640625 0q0.671875 0 0.96875 -0.09375q0.375 -0.109375 0.5625 -0.375q0.203125 -0.265625 0.203125 -0.671875q0 -0.375 -0.1875 -0.65625q-0.171875 -0.296875 -0.515625 -0.40625q-0.328125 -0.109375 -1.15625 -0.109375l-1.515625 0l0 2.3125zm0 3.515625l1.890625 0q0.484375 0 0.6875 -0.03125q0.34375 -0.0625 0.578125 -0.203125q0.234375 -0.15625 0.390625 -0.421875q0.15625 -0.28125 0.15625 -0.65625q0 -0.421875 -0.21875 -0.734375q-0.21875 -0.3125 -0.609375 -0.4375q-0.390625 -0.125 -1.125 -0.125l-1.75 0l0 2.609375zm5.9982605 0.90625l0 -5.53125l0.84375 0l0 0.84375q0.328125 -0.59375 0.59375 -0.78125q0.28125 -0.1875 0.609375 -0.1875q0.46875 0 0.953125 0.3125l-0.3125 0.859375q-0.34375 -0.203125 -0.6875 -0.203125q-0.3125 0 -0.5625 0.1875q-0.234375 0.1875 -0.34375 0.515625q-0.15625 0.5 -0.15625 1.09375l0 2.890625l-0.9375 0zm3.2204895 -2.765625q0 -1.53125 0.84375 -2.265625q0.71875 -0.625 1.734375 -0.625q1.140625 0 1.859375 0.75q0.734375 0.75 0.734375 2.0625q0 1.0625 -0.328125 1.6875q-0.3125 0.609375 -0.921875 0.953125q-0.609375 0.328125 -1.34375 0.328125q-1.15625 0 -1.875 -0.734375q-0.703125 -0.75 -0.703125 -2.15625zm0.953125 0q0 1.0625 0.46875 1.59375q0.46875 0.53125 1.15625 0.53125q0.703125 0 1.15625 -0.53125q0.46875 -0.53125 0.46875 -1.625q0 -1.015625 -0.46875 -1.546875q-0.453125 -0.53125 -1.15625 -0.53125q-0.6875 0 -1.15625 0.53125q-0.46875 0.515625 -0.46875 1.578125zm5.3171387 2.765625l0 -7.625l0.9375 0l0 4.34375l2.21875 -2.25l1.21875 0l-2.125 2.0625l2.328125 3.46875l-1.15625 0l-1.8125 -2.828125l-0.671875 0.640625l0 2.1875l-0.9375 0zm9.109375 -1.78125l0.96875 0.125q-0.234375 0.84375 -0.859375 1.3125q-0.609375 0.46875 -1.578125 0.46875q-1.203125 0 -1.921875 -0.75q-0.703125 -0.75 -0.703125 -2.09375q0 -1.390625 0.71875 -2.15625q0.71875 -0.78125 1.859375 -0.78125q1.109375 0 1.8125 0.765625q0.703125 0.75 0.703125 2.125q0 0.078125 0 0.234375l-4.125 0q0.046875 0.921875 0.515625 1.40625q0.46875 0.484375 1.15625 0.484375q0.515625 0 0.875 -0.265625q0.359375 -0.28125 0.578125 -0.875zm-3.078125 -1.515625l3.09375 0q-0.0625 -0.6875 -0.359375 -1.046875q-0.453125 -0.53125 -1.15625 -0.53125q-0.640625 0 -1.09375 0.4375q-0.4375 0.421875 -0.484375 1.140625zm5.207733 3.296875l0 -5.53125l0.84375 0l0 0.84375q0.328125 -0.59375 0.59375 -0.78125q0.28125 -0.1875 0.609375 -0.1875q0.46875 0 0.953125 0.3125l-0.3125 0.859375q-0.34375 -0.203125 -0.6875 -0.203125q-0.3125 0 -0.5625 0.1875q-0.234375 0.1875 -0.34375 0.515625q-0.15625 0.5 -0.15625 1.09375l0 2.890625l-0.9375 0z" fill-rule="nonzero"/><path fill="#6fa8dc" d="m148.17586 195.14305l67.52756 0l0 28.850388l-67.52756 0z" fill-rule="evenodd"/><path stroke="#000000" stroke-width="1.0" stroke-linejoin="round" stroke-linecap="butt" d="m148.17586 195.14305l67.52756 0l0 28.850388l-67.52756 0z" fill-rule="evenodd"/><path fill="#000000" d="m167.64449 206.80824l0 -7.625l1.515625 0l1.796875 5.390625q0.25 0.765625 0.375 1.140625q0.125 -0.421875 0.40625 -1.234375l1.828125 -5.296875l1.34375 0l0 7.625l-0.96875 0l0 -6.390625l-2.21875 6.390625l-0.90625 0l-2.203125 -6.5l0 6.5l-0.96875 0zm14.6892395 -0.8125q0.703125 0.484375 1.296875 0.703125l-0.296875 0.703125q-0.828125 -0.296875 -1.640625 -0.9375q-0.859375 0.46875 -1.875 0.46875q-1.046875 0 -1.890625 -0.5q-0.828125 -0.5 -1.296875 -1.390625q-0.453125 -0.90625 -0.453125 -2.046875q0 -1.125 0.453125 -2.046875q0.46875 -0.9375 1.3125 -1.421875q0.84375 -0.484375 1.890625 -0.484375q1.0625 0 1.90625 0.5q0.84375 0.5 1.28125 1.40625q0.453125 0.90625 0.453125 2.046875q0 0.9375 -0.28125 1.6875q-0.28125 0.75 -0.859375 1.3125zm-2.234375 -1.296875q0.875 0.25 1.453125 0.734375q0.890625 -0.8125 0.890625 -2.4375q0 -0.9375 -0.328125 -1.625q-0.3125 -0.6875 -0.921875 -1.0625q-0.59375 -0.390625 -1.359375 -0.390625q-1.125 0 -1.875 0.78125q-0.734375 0.765625 -0.734375 2.296875q0 1.484375 0.734375 2.28125q0.734375 0.796875 1.875 0.796875q0.546875 0 1.03125 -0.203125q-0.484375 -0.3125 -1.0 -0.4375l0.234375 -0.734375zm6.6793976 2.109375l0 -6.734375l-2.515625 0l0 -0.890625l6.046875 0l0 0.890625l-2.53125 0l0 6.734375l-1.0 0zm6.509262 0l0 -6.734375l-2.515625 0l0 -0.890625l6.046875 0l0 0.890625l-2.53125 0l0 6.734375l-1.0 0z" fill-rule="nonzero"/><path fill="#000000" d="m167.31927 219.80824l0 -7.625l2.859375 0q0.875 0 1.40625 0.234375q0.53125 0.21875 0.828125 0.703125q0.296875 0.484375 0.296875 1.015625q0 0.484375 -0.265625 0.921875q-0.265625 0.421875 -0.796875 0.6875q0.6875 0.203125 1.0625 0.703125q0.375 0.484375 0.375 1.140625q0 0.546875 -0.234375 1.015625q-0.21875 0.453125 -0.5625 0.703125q-0.328125 0.25 -0.828125 0.375q-0.5 0.125 -1.234375 0.125l-2.90625 0zm1.015625 -4.421875l1.640625 0q0.671875 0 0.96875 -0.09375q0.375 -0.109375 0.5625 -0.375q0.203125 -0.265625 0.203125 -0.671875q0 -0.375 -0.1875 -0.65625q-0.171875 -0.296875 -0.515625 -0.40625q-0.328125 -0.109375 -1.15625 -0.109375l-1.515625 0l0 2.3125zm0 3.515625l1.890625 0q0.484375 0 0.6875 -0.03125q0.34375 -0.0625 0.578125 -0.203125q0.234375 -0.15625 0.390625 -0.421875q0.15625 -0.28125 0.15625 -0.65625q0 -0.421875 -0.21875 -0.734375q-0.21875 -0.3125 -0.609375 -0.4375q-0.390625 -0.125 -1.125 -0.125l-1.75 0l0 2.609375zm5.9982605 0.90625l0 -5.53125l0.84375 0l0 0.84375q0.328125 -0.59375 0.59375 -0.78125q0.28125 -0.1875 0.609375 -0.1875q0.46875 0 0.953125 0.3125l-0.3125 0.859375q-0.34375 -0.203125 -0.6875 -0.203125q-0.3125 0 -0.5625 0.1875q-0.234375 0.1875 -0.34375 0.515625q-0.15625 0.5 -0.15625 1.09375l0 2.890625l-0.9375 0zm3.5642395 -6.546875l0 -1.078125l0.9375 0l0 1.078125l-0.9375 0zm0 6.546875l0 -5.53125l0.9375 0l0 5.53125l-0.9375 0zm5.9456024 0l0 -0.703125q-0.515625 0.828125 -1.546875 0.828125q-0.65625 0 -1.21875 -0.359375q-0.546875 -0.375 -0.859375 -1.015625q-0.296875 -0.65625 -0.296875 -1.5q0 -0.828125 0.28125 -1.5q0.28125 -0.6875 0.828125 -1.046875q0.546875 -0.359375 1.234375 -0.359375q0.5 0 0.890625 0.21875q0.390625 0.203125 0.625 0.546875l0 -2.734375l0.9375 0l0 7.625l-0.875 0zm-2.953125 -2.75q0 1.046875 0.4375 1.578125q0.453125 0.53125 1.0625 0.53125q0.609375 0 1.03125 -0.5q0.4375 -0.515625 0.4375 -1.53125q0 -1.140625 -0.4375 -1.671875q-0.4375 -0.53125 -1.078125 -0.53125q-0.609375 0 -1.03125 0.515625q-0.421875 0.5 -0.421875 1.609375zm5.1296234 3.203125l0.90625 0.140625q0.0625 0.421875 0.328125 0.609375q0.34375 0.265625 0.9375 0.265625q0.65625 0 1.0 -0.265625q0.359375 -0.25 0.484375 -0.71875q0.078125 -0.296875 0.078125 -1.203125q-0.625 0.71875 -1.53125 0.71875q-1.140625 0 -1.765625 -0.8125q-0.625 -0.828125 -0.625 -1.984375q0 -0.78125 0.28125 -1.453125q0.296875 -0.671875 0.828125 -1.03125q0.546875 -0.375 1.28125 -0.375q0.984375 0 1.609375 0.796875l0 -0.671875l0.875 0l0 4.78125q0 1.296875 -0.265625 1.828125q-0.265625 0.546875 -0.84375 0.859375q-0.5625 0.3125 -1.390625 0.3125q-0.984375 0 -1.59375 -0.453125q-0.609375 -0.4375 -0.59375 -1.34375zm0.78125 -3.3125q0 1.078125 0.421875 1.578125q0.4375 0.5 1.078125 0.5q0.65625 0 1.09375 -0.484375q0.4375 -0.5 0.4375 -1.5625q0 -1.015625 -0.453125 -1.53125q-0.453125 -0.515625 -1.09375 -0.515625q-0.609375 0 -1.046875 0.515625q-0.4375 0.5 -0.4375 1.5zm9.098373 1.078125l0.96875 0.125q-0.234375 0.84375 -0.859375 1.3125q-0.609375 0.46875 -1.578125 0.46875q-1.203125 0 -1.921875 -0.75q-0.703125 -0.75 -0.703125 -2.09375q0 -1.390625 0.71875 -2.15625q0.71875 -0.78125 1.859375 -0.78125q1.109375 0 1.8125 0.765625q0.703125 0.75 0.703125 2.125q0 0.078125 0 0.234375l-4.125 0q0.046875 0.921875 0.515625 1.40625q0.46875 0.484375 1.15625 0.484375q0.515625 0 0.875 -0.265625q0.359375 -0.28125 0.578125 -0.875zm-3.078125 -1.515625l3.09375 0q-0.0625 -0.6875 -0.359375 -1.046875q-0.453125 -0.53125 -1.15625 -0.53125q-0.640625 0 -1.09375 0.4375q-0.4375 0.421875 -0.484375 1.140625z" fill-rule="nonzero"/><path fill="#000000" fill-opacity="0.0" d="m215.70341 209.56824l8.040649 0l0 0.06300354l8.053833 0" fill-rule="evenodd"/><path stroke="#000000" stroke-width="1.0" stroke-linejoin="round" stroke-linecap="butt" d="m215.70341 209.56824l8.040649 0l0 0.06300354l8.053833 0" fill-rule="evenodd"/><path fill="#6fa8dc" d="m325.1916 195.14305l67.52756 0l0 28.850388l-67.52756 0z" fill-rule="evenodd"/><path stroke="#000000" stroke-width="1.0" stroke-linejoin="round" stroke-linecap="butt" d="m325.1916 195.14305l67.52756 0l0 28.850388l-67.52756 0z" fill-rule="evenodd"/><path fill="#000000" d="m351.2997 204.13637l1.015625 0.25q-0.328125 1.25 -1.15625 1.90625q-0.8125 0.640625 -2.015625 0.640625q-1.234375 0 -2.0 -0.5q-0.765625 -0.5 -1.171875 -1.453125q-0.40625 -0.953125 -0.40625 -2.046875q0 -1.1875 0.453125 -2.078125q0.453125 -0.890625 1.296875 -1.34375q0.84375 -0.46875 1.84375 -0.46875q1.15625 0 1.9375 0.59375q0.78125 0.578125 1.078125 1.640625l-0.984375 0.234375q-0.265625 -0.84375 -0.78125 -1.21875q-0.5 -0.375 -1.265625 -0.375q-0.875 0 -1.46875 0.421875q-0.59375 0.421875 -0.828125 1.140625q-0.234375 0.703125 -0.234375 1.453125q0 0.96875 0.28125 1.703125q0.28125 0.71875 0.875 1.078125q0.59375 0.359375 1.296875 0.359375q0.84375 0 1.4375 -0.484375q0.59375 -0.5 0.796875 -1.453125zm2.1174927 2.671875l0 -7.625l0.9375 0l0 7.625l-0.9375 0zm2.0393372 -2.765625q0 -1.53125 0.84375 -2.265625q0.71875 -0.625 1.734375 -0.625q1.140625 0 1.859375 0.75q0.734375 0.75 0.734375 2.0625q0 1.0625 -0.328125 1.6875q-0.3125 0.609375 -0.921875 0.953125q-0.609375 0.328125 -1.34375 0.328125q-1.15625 0 -1.875 -0.734375q-0.703125 -0.75 -0.703125 -2.15625zm0.953125 0q0 1.0625 0.46875 1.59375q0.46875 0.53125 1.15625 0.53125q0.703125 0 1.15625 -0.53125q0.46875 -0.53125 0.46875 -1.625q0 -1.015625 -0.46875 -1.546875q-0.453125 -0.53125 -1.15625 -0.53125q-0.6875 0 -1.15625 0.53125q-0.46875 0.515625 -0.46875 1.578125zm8.942139 2.765625l0 -0.8125q-0.65625 0.9375 -1.75 0.9375q-0.5 0 -0.921875 -0.1875q-0.421875 -0.1875 -0.625 -0.46875q-0.203125 -0.28125 -0.296875 -0.703125q-0.046875 -0.265625 -0.046875 -0.875l0 -3.421875l0.9375 0l0 3.0625q0 0.734375 0.046875 1.0q0.09375 0.359375 0.375 0.578125q0.296875 0.203125 0.703125 0.203125q0.421875 0 0.796875 -0.203125q0.375 -0.21875 0.515625 -0.59375q0.15625 -0.375 0.15625 -1.078125l0 -2.96875l0.9375 0l0 5.53125l-0.828125 0zm5.879608 0l0 -0.703125q-0.515625 0.828125 -1.546875 0.828125q-0.65625 0 -1.21875 -0.359375q-0.546875 -0.375 -0.859375 -1.015625q-0.296875 -0.65625 -0.296875 -1.5q0 -0.828125 0.28125 -1.5q0.28125 -0.6875 0.828125 -1.046875q0.546875 -0.359375 1.234375 -0.359375q0.5 0 0.890625 0.21875q0.390625 0.203125 0.625 0.546875l0 -2.734375l0.9375 0l0 7.625l-0.875 0zm-2.953125 -2.75q0 1.046875 0.4375 1.578125q0.453125 0.53125 1.0625 0.53125q0.609375 0 1.03125 -0.5q0.4375 -0.515625 0.4375 -1.53125q0 -1.140625 -0.4375 -1.671875q-0.4375 -0.53125 -1.078125 -0.53125q-0.609375 0 -1.03125 0.515625q-0.421875 0.5 -0.421875 1.609375z" fill-rule="nonzero"/><path fill="#000000" d="m339.34256 219.80824l0 -7.625l2.875 0q0.75 0 1.15625 0.0625q0.5625 0.09375 0.9375 0.359375q0.390625 0.265625 0.609375 0.75q0.234375 0.46875 0.234375 1.03125q0 0.96875 -0.625 1.65625q-0.609375 0.671875 -2.234375 0.671875l-1.953125 0l0 3.09375l-1.0 0zm1.0 -4.0l1.96875 0q0.984375 0 1.390625 -0.359375q0.421875 -0.375 0.421875 -1.03125q0 -0.484375 -0.25 -0.8125q-0.234375 -0.34375 -0.640625 -0.453125q-0.25 -0.078125 -0.9375 -0.078125l-1.953125 0l0 2.734375zm9.6076355 4.0l0 -0.8125q-0.65625 0.9375 -1.75 0.9375q-0.5 0 -0.921875 -0.1875q-0.421875 -0.1875 -0.625 -0.46875q-0.203125 -0.28125 -0.296875 -0.703125q-0.046875 -0.265625 -0.046875 -0.875l0 -3.421875l0.9375 0l0 3.0625q0 0.734375 0.046875 1.0q0.09375 0.359375 0.375 0.578125q0.296875 0.203125 0.703125 0.203125q0.421875 0 0.796875 -0.203125q0.375 -0.21875 0.515625 -0.59375q0.15625 -0.375 0.15625 -1.078125l0 -2.96875l0.9375 0l0 5.53125l-0.828125 0zm3.1608582 0l-0.859375 0l0 -7.625l0.9375 0l0 2.71875q0.59375 -0.75 1.5 -0.75q0.515625 0 0.96875 0.21875q0.453125 0.203125 0.75 0.578125q0.296875 0.359375 0.453125 0.890625q0.171875 0.53125 0.171875 1.125q0 1.421875 -0.703125 2.203125q-0.703125 0.765625 -1.6875 0.765625q-0.96875 0 -1.53125 -0.8125l0 0.6875zm0 -2.796875q0 0.984375 0.265625 1.421875q0.4375 0.734375 1.1875 0.734375q0.625 0 1.0625 -0.53125q0.453125 -0.546875 0.453125 -1.59375q0 -1.078125 -0.4375 -1.59375q-0.421875 -0.515625 -1.03125 -0.515625q-0.609375 0 -1.0625 0.53125q-0.4375 0.53125 -0.4375 1.546875zm4.3640137 2.921875l2.21875 -7.890625l0.734375 0l-2.203125 7.890625l-0.75 0zm3.4450073 -2.578125l0.953125 -0.078125q0.0625 0.5625 0.3125 0.9375q0.25 0.359375 0.765625 0.59375q0.515625 0.21875 1.171875 0.21875q0.578125 0 1.015625 -0.171875q0.4375 -0.171875 0.65625 -0.46875q0.21875 -0.296875 0.21875 -0.65625q0 -0.359375 -0.21875 -0.625q-0.203125 -0.265625 -0.671875 -0.4375q-0.3125 -0.125 -1.359375 -0.375q-1.046875 -0.25 -1.46875 -0.484375q-0.546875 -0.28125 -0.828125 -0.703125q-0.265625 -0.421875 -0.265625 -0.953125q0 -0.578125 0.328125 -1.078125q0.328125 -0.5 0.953125 -0.765625q0.640625 -0.265625 1.40625 -0.265625q0.84375 0 1.484375 0.28125q0.65625 0.265625 1.0 0.796875q0.359375 0.53125 0.390625 1.203125l-0.96875 0.078125q-0.078125 -0.71875 -0.53125 -1.09375q-0.453125 -0.375 -1.328125 -0.375q-0.921875 0 -1.34375 0.34375q-0.40625 0.328125 -0.40625 0.8125q0 0.40625 0.296875 0.671875q0.28125 0.265625 1.515625 0.546875q1.234375 0.28125 1.6875 0.484375q0.671875 0.3125 0.984375 0.78125q0.3125 0.46875 0.3125 1.078125q0 0.609375 -0.34375 1.15625q-0.34375 0.53125 -1.0 0.828125q-0.65625 0.296875 -1.46875 0.296875q-1.046875 0 -1.75 -0.296875q-0.6875 -0.296875 -1.09375 -0.90625q-0.390625 -0.609375 -0.40625 -1.375zm10.9513855 2.453125l0 -0.8125q-0.65625 0.9375 -1.75 0.9375q-0.5 0 -0.921875 -0.1875q-0.421875 -0.1875 -0.625 -0.46875q-0.203125 -0.28125 -0.296875 -0.703125q-0.046875 -0.265625 -0.046875 -0.875l0 -3.421875l0.9375 0l0 3.0625q0 0.734375 0.046875 1.0q0.09375 0.359375 0.375 0.578125q0.296875 0.203125 0.703125 0.203125q0.421875 0 0.796875 -0.203125q0.375 -0.21875 0.515625 -0.59375q0.15625 -0.375 0.15625 -1.078125l0 -2.96875l0.9375 0l0 5.53125l-0.828125 0zm3.1608887 0l-0.859375 0l0 -7.625l0.9375 0l0 2.71875q0.59375 -0.75 1.5 -0.75q0.515625 0 0.96875 0.21875q0.453125 0.203125 0.75 0.578125q0.296875 0.359375 0.453125 0.890625q0.171875 0.53125 0.171875 1.125q0 1.421875 -0.703125 2.203125q-0.703125 0.765625 -1.6875 0.765625q-0.96875 0 -1.53125 -0.8125l0 0.6875zm0 -2.796875q0 0.984375 0.265625 1.421875q0.4375 0.734375 1.1875 0.734375q0.625 0 1.0625 -0.53125q0.453125 -0.546875 0.453125 -1.59375q0 -1.078125 -0.4375 -1.59375q-0.421875 -0.515625 -1.03125 -0.515625q-0.609375 0 -1.0625 0.53125q-0.4375 0.53125 -0.4375 1.546875z" fill-rule="nonzero"/><path fill="#6fa8dc" d="m320.7743 125.47638l67.52756 0l0 28.850388l-67.52756 0z" fill-rule="evenodd"/><path stroke="#000000" stroke-width="1.0" stroke-linejoin="round" stroke-linecap="butt" d="m320.7743 125.47638l67.52756 0l0 28.850388l-67.52756 0z" fill-rule="evenodd"/><path fill="#6fa8dc" d="m325.16534 134.9567l67.52756 0l0 28.850388l-67.52756 0z" fill-rule="evenodd"/><path stroke="#000000" stroke-width="1.0" stroke-linejoin="round" stroke-linecap="butt" d="m325.16534 134.9567l67.52756 0l0 28.850388l-67.52756 0z" fill-rule="evenodd"/><path fill="#6fa8dc" d="m330.83466 144.3084l67.52756 0l0 28.850403l-67.52756 0z" fill-rule="evenodd"/><path stroke="#000000" stroke-width="1.0" stroke-linejoin="round" stroke-linecap="butt" d="m330.83466 144.3084l67.52756 0l0 28.850403l-67.52756 0z" fill-rule="evenodd"/><path fill="#000000" d="m354.17194 155.9736l0 -7.625l2.625 0q0.890625 0 1.359375 0.109375q0.65625 0.140625 1.109375 0.546875q0.609375 0.5 0.90625 1.296875q0.296875 0.796875 0.296875 1.8125q0 0.875 -0.203125 1.546875q-0.203125 0.671875 -0.515625 1.109375q-0.3125 0.4375 -0.703125 0.6875q-0.375 0.25 -0.90625 0.390625q-0.53125 0.125 -1.21875 0.125l-2.75 0zm1.0 -0.90625l1.625 0q0.765625 0 1.1875 -0.140625q0.4375 -0.140625 0.6875 -0.390625q0.359375 -0.359375 0.5625 -0.953125q0.203125 -0.609375 0.203125 -1.484375q0 -1.1875 -0.40625 -1.828125q-0.390625 -0.65625 -0.953125 -0.875q-0.40625 -0.15625 -1.296875 -0.15625l-1.609375 0l0 5.828125zm10.179962 0.21875q-0.53125 0.453125 -1.015625 0.640625q-0.46875 0.171875 -1.015625 0.171875q-0.921875 0 -1.40625 -0.4375q-0.484375 -0.453125 -0.484375 -1.140625q0 -0.40625 0.171875 -0.734375q0.1875 -0.34375 0.484375 -0.546875q0.3125 -0.203125 0.6875 -0.3125q0.265625 -0.0625 0.828125 -0.140625q1.125 -0.125 1.671875 -0.3125q0 -0.203125 0 -0.25q0 -0.578125 -0.265625 -0.8125q-0.359375 -0.3125 -1.0625 -0.3125q-0.65625 0 -0.984375 0.234375q-0.3125 0.234375 -0.453125 0.8125l-0.921875 -0.125q0.125 -0.578125 0.40625 -0.9375q0.296875 -0.375 0.828125 -0.5625q0.546875 -0.203125 1.25 -0.203125q0.71875 0 1.15625 0.171875q0.4375 0.171875 0.640625 0.421875q0.21875 0.25 0.296875 0.640625q0.046875 0.234375 0.046875 0.859375l0 1.25q0 1.296875 0.0625 1.65625q0.0625 0.34375 0.234375 0.65625l-0.96875 0q-0.15625 -0.296875 -0.1875 -0.6875zm-0.078125 -2.078125q-0.515625 0.203125 -1.53125 0.34375q-0.578125 0.078125 -0.828125 0.1875q-0.234375 0.109375 -0.359375 0.3125q-0.125 0.1875 -0.125 0.4375q0 0.375 0.28125 0.625q0.28125 0.25 0.828125 0.25q0.53125 0 0.953125 -0.234375q0.421875 -0.234375 0.625 -0.65625q0.15625 -0.3125 0.15625 -0.9375l0 -0.328125zm4.4421387 1.921875l0.125 0.828125q-0.390625 0.09375 -0.703125 0.09375q-0.5 0 -0.78125 -0.15625q-0.28125 -0.171875 -0.40625 -0.4375q-0.109375 -0.265625 -0.109375 -1.109375l0 -3.171875l-0.6875 0l0 -0.734375l0.6875 0l0 -1.359375l0.9375 -0.5625l0 1.921875l0.9375 0l0 0.734375l-0.9375 0l0 3.234375q0 0.390625 0.046875 0.515625q0.046875 0.109375 0.15625 0.1875q0.109375 0.0625 0.328125 0.0625q0.15625 0 0.40625 -0.046875zm4.5231323 0.15625q-0.53125 0.453125 -1.015625 0.640625q-0.46875 0.171875 -1.015625 0.171875q-0.921875 0 -1.40625 -0.4375q-0.484375 -0.453125 -0.484375 -1.140625q0 -0.40625 0.171875 -0.734375q0.1875 -0.34375 0.484375 -0.546875q0.3125 -0.203125 0.6875 -0.3125q0.265625 -0.0625 0.828125 -0.140625q1.125 -0.125 1.671875 -0.3125q0 -0.203125 0 -0.25q0 -0.578125 -0.265625 -0.8125q-0.359375 -0.3125 -1.0625 -0.3125q-0.65625 0 -0.984375 0.234375q-0.3125 0.234375 -0.453125 0.8125l-0.921875 -0.125q0.125 -0.578125 0.40625 -0.9375q0.296875 -0.375 0.828125 -0.5625q0.546875 -0.203125 1.25 -0.203125q0.71875 0 1.15625 0.171875q0.4375 0.171875 0.640625 0.421875q0.21875 0.25 0.296875 0.640625q0.046875 0.234375 0.046875 0.859375l0 1.25q0 1.296875 0.0625 1.65625q0.0625 0.34375 0.234375 0.65625l-0.96875 0q-0.15625 -0.296875 -0.1875 -0.6875zm-0.078125 -2.078125q-0.515625 0.203125 -1.53125 0.34375q-0.578125 0.078125 -0.828125 0.1875q-0.234375 0.109375 -0.359375 0.3125q-0.125 0.1875 -0.125 0.4375q0 0.375 0.28125 0.625q0.28125 0.25 0.828125 0.25q0.53125 0 0.953125 -0.234375q0.421875 -0.234375 0.625 -0.65625q0.15625 -0.3125 0.15625 -0.9375l0 -0.328125z" fill-rule="nonzero"/><path fill="#000000" d="m346.4685 168.97359l0 -7.625l2.875 0q0.75 0 1.15625 0.0625q0.5625 0.09375 0.9375 0.359375q0.390625 0.265625 0.609375 0.75q0.234375 0.46875 0.234375 1.03125q0 0.96875 -0.625 1.65625q-0.609375 0.671875 -2.234375 0.671875l-1.953125 0l0 3.09375l-1.0 0zm1.0 -4.0l1.96875 0q0.984375 0 1.390625 -0.359375q0.421875 -0.375 0.421875 -1.03125q0 -0.484375 -0.25 -0.8125q-0.234375 -0.34375 -0.640625 -0.453125q-0.25 -0.078125 -0.9375 -0.078125l-1.953125 0l0 2.734375zm5.9826355 -2.546875l0 -1.078125l0.9375 0l0 1.078125l-0.9375 0zm0 6.546875l0 -5.53125l0.9375 0l0 5.53125l-0.9375 0zm2.3674927 2.125l0 -7.65625l0.859375 0l0 0.71875q0.296875 -0.421875 0.671875 -0.625q0.390625 -0.21875 0.921875 -0.21875q0.703125 0 1.25 0.375q0.546875 0.359375 0.8125 1.03125q0.28125 0.65625 0.28125 1.453125q0 0.84375 -0.3125 1.53125q-0.296875 0.671875 -0.875 1.03125q-0.578125 0.359375 -1.21875 0.359375q-0.46875 0 -0.84375 -0.1875q-0.375 -0.203125 -0.609375 -0.515625l0 2.703125l-0.9375 0zm0.84375 -4.859375q0 1.0625 0.4375 1.578125q0.4375 0.515625 1.046875 0.515625q0.625 0 1.0625 -0.53125q0.453125 -0.53125 0.453125 -1.640625q0 -1.046875 -0.4375 -1.578125q-0.4375 -0.53125 -1.046875 -0.53125q-0.59375 0 -1.0625 0.5625q-0.453125 0.5625 -0.453125 1.625zm8.863983 0.953125l0.96875 0.125q-0.234375 0.84375 -0.859375 1.3125q-0.609375 0.46875 -1.578125 0.46875q-1.203125 0 -1.921875 -0.75q-0.703125 -0.75 -0.703125 -2.09375q0 -1.390625 0.71875 -2.15625q0.71875 -0.78125 1.859375 -0.78125q1.109375 0 1.8125 0.765625q0.703125 0.75 0.703125 2.125q0 0.078125 0 0.234375l-4.125 0q0.046875 0.921875 0.515625 1.40625q0.46875 0.484375 1.15625 0.484375q0.515625 0 0.875 -0.265625q0.359375 -0.28125 0.578125 -0.875zm-3.078125 -1.515625l3.09375 0q-0.0625 -0.6875 -0.359375 -1.046875q-0.453125 -0.53125 -1.15625 -0.53125q-0.640625 0 -1.09375 0.4375q-0.4375 0.421875 -0.484375 1.140625zm5.2077637 3.296875l0 -7.625l0.9375 0l0 7.625l-0.9375 0zm2.3830872 -6.546875l0 -1.078125l0.9375 0l0 1.078125l-0.9375 0zm0 6.546875l0 -5.53125l0.9375 0l0 5.53125l-0.9375 0zm2.3674927 0l0 -5.53125l0.84375 0l0 0.796875q0.609375 -0.921875 1.75 -0.921875q0.5 0 0.921875 0.1875q0.421875 0.171875 0.625 0.46875q0.21875 0.296875 0.296875 0.6875q0.046875 0.265625 0.046875 0.921875l0 3.390625l-0.9375 0l0 -3.359375q0 -0.578125 -0.109375 -0.859375q-0.109375 -0.28125 -0.390625 -0.453125q-0.265625 -0.171875 -0.640625 -0.171875q-0.59375 0 -1.03125 0.390625q-0.4375 0.375 -0.4375 1.4375l0 3.015625l-0.9375 0zm9.707733 -1.78125l0.96875 0.125q-0.234375 0.84375 -0.859375 1.3125q-0.609375 0.46875 -1.578125 0.46875q-1.203125 0 -1.921875 -0.75q-0.703125 -0.75 -0.703125 -2.09375q0 -1.390625 0.71875 -2.15625q0.71875 -0.78125 1.859375 -0.78125q1.109375 0 1.8125 0.765625q0.703125 0.75 0.703125 2.125q0 0.078125 0 0.234375l-4.125 0q0.046875 0.921875 0.515625 1.40625q0.46875 0.484375 1.15625 0.484375q0.515625 0 0.875 -0.265625q0.359375 -0.28125 0.578125 -0.875zm-3.078125 -1.515625l3.09375 0q-0.0625 -0.6875 -0.359375 -1.046875q-0.453125 -0.53125 -1.15625 -0.53125q-0.640625 0 -1.09375 0.4375q-0.4375 0.421875 -0.484375 1.140625z" fill-rule="nonzero"/><path fill="#000000" fill-opacity="0.0" d="m364.59842 173.1588l0 10.992126l-5.637787 0l0 10.992126" fill-rule="evenodd"/><path stroke="#000000" stroke-width="1.0" stroke-linejoin="round" stroke-linecap="butt" d="m364.59842 173.1588l0 10.992126l-5.637787 0l0 10.992126" fill-rule="evenodd"/><path fill="#6fa8dc" d="m229.89502 8.385827l79.8425 0l0 47.937008l-79.8425 0z" fill-rule="evenodd"/><path stroke="#000000" stroke-width="1.0" stroke-linejoin="round" stroke-linecap="butt" d="m229.89502 8.385827l79.8425 0l0 47.937008l-79.8425 0z" fill-rule="evenodd"/><path fill="#000000" d="m243.99336 36.09433l0 -7.625l2.875 0q0.75 0 1.15625 0.0625q0.5625 0.09375 0.9375 0.359375q0.390625 0.265625 0.609375 0.75q0.234375 0.46875 0.234375 1.03125q0 0.96875 -0.625 1.65625q-0.609375 0.671875 -2.234375 0.671875l-1.953125 0l0 3.09375l-1.0 0zm1.0 -4.0l1.96875 0q0.984375 0 1.390625 -0.359375q0.421875 -0.375 0.421875 -1.03125q0 -0.484375 -0.25 -0.8125q-0.234375 -0.34375 -0.640625 -0.453125q-0.25 -0.078125 -0.9375 -0.078125l-1.953125 0l0 2.734375zm5.9670105 4.0l0 -5.53125l0.84375 0l0 0.84375q0.328125 -0.59375 0.59375 -0.78125q0.28125 -0.1875 0.609375 -0.1875q0.46875 0 0.953125 0.3125l-0.3125 0.859375q-0.34375 -0.203125 -0.6875 -0.203125q-0.3125 0 -0.5625 0.1875q-0.234375 0.1875 -0.34375 0.515625q-0.15625 0.5 -0.15625 1.09375l0 2.890625l-0.9375 0zm3.2204895 -2.765625q0 -1.53125 0.84375 -2.265625q0.71875 -0.625 1.7343903 -0.625q1.140625 0 1.859375 0.75q0.734375 0.75 0.734375 2.0625q0 1.0625 -0.328125 1.6875q-0.3125 0.609375 -0.921875 0.953125q-0.609375 0.328125 -1.34375 0.328125q-1.1562653 0 -1.8750153 -0.734375q-0.703125 -0.75 -0.703125 -2.15625zm0.953125 0q0 1.0625 0.46875 1.59375q0.46876526 0.53125 1.1562653 0.53125q0.703125 0 1.15625 -0.53125q0.46875 -0.53125 0.46875 -1.625q0 -1.015625 -0.46875 -1.546875q-0.453125 -0.53125 -1.15625 -0.53125q-0.6875 0 -1.1562653 0.53125q-0.46875 0.515625 -0.46875 1.578125zm6.8483734 2.765625l-2.09375 -5.53125l0.984375 0l1.1875 3.3125q0.1875 0.53125 0.359375 1.109375q0.109375 -0.4375 0.34375 -1.046875l1.21875 -3.375l0.96875 0l-2.09375 5.53125l-0.875 0zm3.796875 -6.546875l0 -1.078125l0.9375 0l0 1.078125l-0.9375 0zm0 6.546875l0 -5.53125l0.9375 0l0 5.53125l-0.9375 0zm1.9924927 -1.65625l0.921875 -0.140625q0.078125 0.5625 0.4375 0.859375q0.359375 0.296875 1.0 0.296875q0.640625 0 0.953125 -0.265625q0.3125 -0.265625 0.3125 -0.625q0 -0.3125 -0.28125 -0.5q-0.1875 -0.125 -0.953125 -0.3125q-1.03125 -0.265625 -1.4375 -0.453125q-0.390625 -0.1875 -0.59375 -0.515625q-0.203125 -0.34375 -0.203125 -0.75q0 -0.359375 0.171875 -0.671875q0.171875 -0.328125 0.453125 -0.53125q0.21875 -0.15625 0.59375 -0.265625q0.390625 -0.125 0.8125 -0.125q0.65625 0 1.140625 0.1875q0.5 0.1875 0.734375 0.515625q0.234375 0.3125 0.3125 0.859375l-0.90625 0.125q-0.0625 -0.4375 -0.375 -0.671875q-0.296875 -0.234375 -0.828125 -0.234375q-0.65625 0 -0.9375 0.21875q-0.265625 0.203125 -0.265625 0.484375q0 0.1875 0.109375 0.328125q0.125 0.15625 0.359375 0.25q0.140625 0.0625 0.828125 0.25q1.0 0.265625 1.390625 0.4375q0.390625 0.15625 0.609375 0.484375q0.234375 0.3125 0.234375 0.796875q0 0.46875 -0.28125 0.890625q-0.265625 0.40625 -0.78125 0.640625q-0.515625 0.21875 -1.171875 0.21875q-1.078125 0 -1.640625 -0.4375q-0.5625 -0.453125 -0.71875 -1.34375zm5.703125 -4.890625l0 -1.078125l0.9375 0l0 1.078125l-0.9375 0zm0 6.546875l0 -5.53125l0.9375 0l0 5.53125l-0.9375 0zm2.0237122 -2.765625q0 -1.53125 0.84375 -2.265625q0.71875 -0.625 1.734375 -0.625q1.140625 0 1.859375 0.75q0.734375 0.75 0.734375 2.0625q0 1.0625 -0.328125 1.6875q-0.3125 0.609375 -0.921875 0.953125q-0.609375 0.328125 -1.34375 0.328125q-1.15625 0 -1.875 -0.734375q-0.703125 -0.75 -0.703125 -2.15625zm0.953125 0q0 1.0625 0.46875 1.59375q0.46875 0.53125 1.15625 0.53125q0.703125 0 1.15625 -0.53125q0.46875 -0.53125 0.46875 -1.625q0 -1.015625 -0.46875 -1.546875q-0.453125 -0.53125 -1.15625 -0.53125q-0.6875 0 -1.15625 0.53125q-0.46875 0.515625 -0.46875 1.578125zm5.3171387 2.765625l0 -5.53125l0.84375 0l0 0.796875q0.609375 -0.921875 1.75 -0.921875q0.5 0 0.921875 0.1875q0.421875 0.171875 0.625 0.46875q0.21875 0.296875 0.296875 0.6875q0.046875 0.265625 0.046875 0.921875l0 3.390625l-0.9375 0l0 -3.359375q0 -0.578125 -0.109375 -0.859375q-0.109375 -0.28125 -0.390625 -0.453125q-0.265625 -0.171875 -0.640625 -0.171875q-0.59375 0 -1.03125 0.390625q-0.4375 0.375 -0.4375 1.4375l0 3.015625l-0.9375 0zm9.707733 -1.78125l0.96875 0.125q-0.234375 0.84375 -0.859375 1.3125q-0.609375 0.46875 -1.578125 0.46875q-1.203125 0 -1.921875 -0.75q-0.703125 -0.75 -0.703125 -2.09375q0 -1.390625 0.71875 -2.15625q0.71875 -0.78125 1.859375 -0.78125q1.109375 0 1.8125 0.765625q0.703125 0.75 0.703125 2.125q0 0.078125 0 0.234375l-4.125 0q0.046875 0.921875 0.515625 1.40625q0.46875 0.484375 1.15625 0.484375q0.515625 0 0.875 -0.265625q0.359375 -0.28125 0.578125 -0.875zm-3.078125 -1.515625l3.09375 0q-0.0625 -0.6875 -0.359375 -1.046875q-0.453125 -0.53125 -1.15625 -0.53125q-0.640625 0 -1.09375 0.4375q-0.4375 0.421875 -0.484375 1.140625zm5.2077637 3.296875l0 -5.53125l0.84375 0l0 0.84375q0.328125 -0.59375 0.59375 -0.78125q0.28125 -0.1875 0.609375 -0.1875q0.46875 0 0.953125 0.3125l-0.3125 0.859375q-0.34375 -0.203125 -0.6875 -0.203125q-0.3125 0 -0.5625 0.1875q-0.234375 0.1875 -0.34375 0.515625q-0.15625 0.5 -0.15625 1.09375l0 2.890625l-0.9375 0z" fill-rule="nonzero"/></g></svg>